<svg id="svg" version="1.1" width="2400" height="1492" xmlns="http://www.w3.org/2000/svg" xmlns:xlink="http://www.w3.org/1999/xlink" style="display: block;"><g id="svgg"><path id="path0" d="M196.134 65.011 C 194.886 65.211,193.698 65.967,192.110 67.573 C 190.868 68.828,190.592 69.034,190.348 68.881 C 189.095 68.099,187.946 67.638,186.609 67.382 C 185.647 67.197,183.439 68.153,182.197 69.292 C 181.281 70.131,181.443 70.111,180.228 69.542 C 177.384 68.209,173.554 69.831,170.987 73.456 C 170.671 73.903,170.352 74.168,170.119 74.178 C 169.916 74.186,167.462 74.227,164.667 74.267 L 159.583 74.342 157.653 72.796 C 156.592 71.946,154.643 70.369,153.323 69.292 L 150.922 67.333 149.554 67.333 C 147.704 67.333,147.717 67.435,149.777 69.120 C 153.841 72.444,155.573 73.926,155.578 74.083 C 155.581 74.180,154.919 74.269,154.000 74.295 L 152.417 74.340 151.000 73.246 C 150.221 72.645,149.208 71.856,148.750 71.494 C 147.943 70.856,147.875 70.835,146.635 70.834 C 144.905 70.833,144.912 70.940,146.745 72.530 C 148.715 74.239,148.728 74.333,147.000 74.333 L 145.667 74.333 145.667 75.913 C 145.667 77.720,145.577 77.628,147.417 77.707 L 148.417 77.750 147.516 78.583 C 147.021 79.042,146.271 79.730,145.851 80.113 C 144.916 80.963,144.987 81.050,146.628 81.069 L 147.923 81.083 149.228 80.000 C 149.945 79.404,150.911 78.635,151.375 78.292 L 152.218 77.667 153.950 77.667 L 155.682 77.667 155.398 78.042 C 155.242 78.248,153.595 79.643,151.737 81.142 C 146.973 84.986,147.074 84.841,149.135 84.868 L 150.476 84.885 152.611 83.151 C 153.785 82.197,155.797 80.574,157.081 79.544 L 159.417 77.671 163.439 77.669 C 167.984 77.666,167.694 77.579,168.153 79.083 C 168.265 79.450,168.423 79.900,168.504 80.083 C 168.585 80.267,169.224 82.142,169.924 84.250 C 170.623 86.358,171.255 88.233,171.328 88.417 C 171.401 88.600,171.628 89.313,171.833 90.000 C 172.038 90.688,172.264 91.400,172.334 91.583 C 172.404 91.767,172.554 92.254,172.667 92.667 C 172.780 93.079,172.930 93.604,173.002 93.833 C 173.785 96.341,175.626 103.017,176.013 104.750 C 176.095 105.117,176.241 105.717,176.339 106.083 C 176.645 107.240,177.142 109.498,177.659 112.083 C 177.934 113.458,178.243 114.996,178.346 115.500 C 178.448 116.004,178.604 116.792,178.692 117.250 C 178.780 117.708,178.923 118.403,179.009 118.794 C 179.096 119.185,179.167 119.718,179.167 119.978 C 179.167 120.238,179.233 120.668,179.315 120.933 C 179.397 121.199,179.549 122.054,179.654 122.833 C 179.758 123.612,179.912 124.625,179.996 125.083 C 180.155 125.958,180.556 128.655,180.924 131.333 C 181.044 132.204,181.299 134.042,181.492 135.417 C 182.491 142.564,183.033 148.603,183.325 155.833 C 183.609 162.884,183.632 164.417,183.497 167.373 C 183.405 169.382,183.421 170.317,183.547 170.471 C 183.779 170.754,183.435 170.994,182.792 170.997 C 182.215 171.001,182.197 171.290,182.761 171.504 C 183.814 171.905,189.000 171.646,189.000 171.193 C 189.000 171.111,188.694 171.003,188.320 170.953 C 187.494 170.842,187.355 170.728,187.714 170.457 C 188.019 170.225,187.855 159.602,187.506 157.000 C 187.414 156.313,187.220 153.650,187.076 151.083 C 186.931 148.517,186.740 145.742,186.651 144.917 C 186.562 144.092,186.338 142.029,186.154 140.333 C 185.969 138.637,185.793 137.025,185.763 136.750 C 185.733 136.475,185.552 135.057,185.360 133.599 C 185.169 132.142,185.051 130.885,185.099 130.808 C 185.147 130.730,190.663 130.667,197.357 130.667 L 209.528 130.667 209.449 131.708 C 209.406 132.281,209.214 133.987,209.024 135.500 C 208.834 137.012,208.605 139.000,208.515 139.917 C 208.425 140.833,208.191 143.121,207.994 145.000 C 207.797 146.879,207.607 148.867,207.573 149.417 C 207.538 149.967,207.396 152.104,207.257 154.167 C 206.861 160.023,206.615 170.365,206.868 170.522 C 207.167 170.706,206.974 170.826,206.148 170.970 L 205.417 171.098 205.864 171.394 C 206.471 171.796,211.412 171.745,211.668 171.333 C 211.792 171.135,211.697 171.053,211.204 170.936 C 210.444 170.756,210.410 170.729,210.620 170.462 C 210.723 170.332,210.827 167.485,210.888 163.083 C 210.943 159.142,211.063 155.017,211.154 153.917 C 211.245 152.817,211.403 150.717,211.505 149.250 C 211.769 145.442,212.261 140.897,213.163 133.917 C 213.246 133.275,213.396 132.112,213.495 131.333 C 213.595 130.554,213.749 129.467,213.837 128.917 C 213.926 128.367,214.035 127.654,214.080 127.333 C 214.249 126.130,214.664 123.360,214.917 121.750 C 215.283 119.417,216.231 114.211,216.502 113.042 C 216.593 112.652,216.735 112.015,216.818 111.625 C 217.504 108.423,219.279 101.236,220.163 98.083 C 220.240 97.808,220.459 97.009,220.650 96.307 C 221.379 93.620,223.271 87.510,224.280 84.583 C 224.596 83.667,224.993 82.504,225.161 82.000 C 225.679 80.450,226.470 78.487,226.746 78.066 L 227.008 77.667 232.244 77.667 C 238.141 77.667,237.965 77.622,237.115 78.902 C 235.905 80.725,234.833 83.362,234.833 84.518 C 234.833 85.161,234.938 85.135,236.186 84.190 C 239.453 81.717,244.301 79.241,249.897 77.188 C 252.516 76.227,252.531 76.182,250.500 75.432 C 243.495 72.842,239.771 70.997,236.417 68.452 L 234.917 67.314 234.865 67.912 C 234.775 68.940,235.581 71.052,236.991 73.485 C 237.488 74.343,237.548 74.333,231.448 74.332 C 224.599 74.331,224.903 74.394,223.407 72.664 C 220.675 69.503,217.377 68.309,214.787 69.542 C 213.598 70.108,213.795 70.135,212.777 69.267 C 210.141 67.023,208.111 66.839,205.214 68.584 L 204.253 69.163 203.002 67.930 C 200.489 65.455,198.538 64.626,196.134 65.011 M199.080 69.046 C 199.959 69.487,201.833 71.300,201.833 71.709 C 201.833 71.887,201.685 72.240,201.504 72.494 C 196.479 79.551,197.346 91.178,202.895 91.165 C 204.786 91.161,207.796 88.130,208.026 86.000 C 208.040 85.862,208.108 86.237,208.176 86.833 C 208.643 90.932,210.115 92.818,212.891 92.877 C 218.479 92.997,219.997 83.546,215.930 73.964 C 215.576 73.130,215.585 73.097,216.220 72.867 C 218.919 71.891,223.632 76.291,222.571 78.797 C 222.134 79.829,219.829 86.597,218.783 89.917 C 218.393 91.153,217.220 95.195,216.073 99.250 C 215.482 101.342,214.527 105.191,213.924 107.917 C 213.700 108.925,213.355 110.462,213.155 111.333 C 212.956 112.204,212.726 113.217,212.645 113.583 C 212.286 115.206,210.993 122.227,210.578 124.813 C 210.440 125.673,210.286 126.442,210.237 126.521 C 210.187 126.602,204.407 126.667,197.263 126.667 L 184.379 126.667 184.183 125.625 C 184.075 125.052,183.879 123.847,183.748 122.946 C 183.495 121.222,182.860 117.879,182.333 115.500 C 182.160 114.721,181.934 113.558,181.830 112.917 C 181.725 112.275,181.597 111.638,181.545 111.500 C 181.492 111.362,181.275 110.462,181.063 109.500 C 180.280 105.952,178.345 98.312,177.666 96.083 C 177.470 95.442,177.132 94.279,176.915 93.500 C 176.129 90.682,173.171 81.711,172.409 79.833 C 171.800 78.334,171.848 77.856,172.749 76.410 C 174.450 73.681,177.219 72.082,178.814 72.907 C 179.401 73.210,179.403 73.358,178.833 74.500 C 178.561 75.046,177.878 77.161,177.256 79.384 C 175.988 83.919,176.978 89.883,179.319 91.810 C 182.613 94.523,186.801 91.786,186.875 86.872 C 186.881 86.477,186.949 86.115,187.026 86.067 C 187.104 86.019,187.167 86.124,187.167 86.300 C 187.167 86.820,188.195 88.661,188.962 89.515 C 191.812 92.687,195.822 90.909,196.700 86.083 C 196.986 84.511,197.041 82.601,196.834 81.420 C 196.574 79.932,195.894 77.326,195.558 76.529 C 195.052 75.330,194.247 73.735,193.628 72.705 C 192.831 71.380,192.824 71.431,193.952 70.278 C 195.668 68.524,197.272 68.139,199.080 69.046 M187.294 71.141 C 189.036 71.993,189.017 71.929,188.195 74.186 C 187.366 76.459,186.825 78.475,186.782 79.450 C 186.748 80.200,186.452 80.346,186.368 79.654 C 186.263 78.797,185.089 75.515,184.381 74.100 C 183.645 72.630,183.641 72.614,183.944 72.208 C 184.642 71.275,186.413 70.711,187.294 71.141 M209.987 71.386 C 211.454 72.136,211.479 72.307,210.451 74.506 C 209.959 75.557,209.385 76.979,209.175 77.667 C 208.965 78.354,208.731 79.067,208.654 79.250 C 208.577 79.433,208.483 79.771,208.446 80.000 C 208.406 80.251,208.370 80.140,208.356 79.718 C 208.344 79.334,208.268 78.979,208.189 78.930 C 208.109 78.881,207.996 78.476,207.936 78.030 C 207.818 77.137,206.926 74.379,206.343 73.102 C 205.982 72.312,205.980 72.279,206.277 71.983 C 207.246 71.016,208.781 70.769,209.987 71.386 M192.383 76.750 C 194.401 80.790,194.583 86.468,192.721 87.316 C 189.932 88.587,188.551 82.486,190.359 76.888 C 191.182 74.342,191.180 74.342,192.383 76.750 M204.738 77.218 C 206.061 81.194,205.638 85.915,203.850 87.119 C 200.416 89.431,199.940 80.679,203.229 75.689 L 203.709 74.962 204.007 75.439 C 204.170 75.702,204.499 76.502,204.738 77.218 M183.015 78.506 C 183.818 80.951,184.239 85.510,183.855 87.583 C 183.302 90.564,180.194 89.555,179.745 86.250 C 179.733 86.158,179.665 85.662,179.595 85.148 C 179.397 83.695,180.127 79.246,180.835 77.583 C 180.914 77.400,181.145 76.869,181.350 76.404 L 181.722 75.557 182.196 76.505 C 182.456 77.027,182.825 77.927,183.015 78.506 M213.828 76.794 C 215.928 81.729,215.933 87.543,213.839 88.958 C 212.627 89.777,211.476 89.239,211.157 87.705 C 210.752 85.759,211.143 81.335,211.957 78.667 C 212.258 77.678,213.198 75.476,213.283 75.560 C 213.302 75.580,213.547 76.135,213.828 76.794 " stroke="none" fill="#ffffff" fill-rule="evenodd"></path><path id="path1" d="M188.583 17.167 C 188.527 17.258,187.814 17.333,187.000 17.333 C 186.186 17.333,185.473 17.408,185.417 17.500 C 185.360 17.592,184.943 17.667,184.490 17.667 C 184.037 17.667,183.667 17.742,183.667 17.833 C 183.667 17.926,183.226 18.000,182.677 18.000 C 182.132 18.000,181.640 18.075,181.583 18.167 C 181.527 18.258,181.185 18.333,180.823 18.333 C 180.462 18.333,180.167 18.408,180.167 18.500 C 180.167 18.592,179.834 18.667,179.427 18.667 C 179.019 18.667,178.640 18.742,178.583 18.833 C 178.527 18.925,178.189 19.000,177.833 19.000 C 177.477 19.000,177.140 19.075,177.083 19.167 C 177.027 19.258,176.802 19.333,176.583 19.333 C 176.365 19.333,176.140 19.408,176.083 19.500 C 176.027 19.592,175.755 19.667,175.481 19.667 C 175.206 19.667,174.645 19.854,174.234 20.083 C 173.824 20.313,173.228 20.500,172.911 20.500 C 172.593 20.500,172.333 20.575,172.333 20.667 C 172.333 20.758,172.183 20.833,172.000 20.833 C 171.817 20.833,171.667 20.908,171.667 21.000 C 171.667 21.092,171.367 21.167,171.000 21.167 C 170.633 21.167,170.333 21.242,170.333 21.333 C 170.333 21.425,170.183 21.500,170.000 21.500 C 169.817 21.500,169.667 21.575,169.667 21.667 C 169.667 21.758,169.446 21.833,169.177 21.833 C 168.907 21.833,168.640 21.908,168.583 22.000 C 168.527 22.092,168.335 22.167,168.157 22.167 C 167.979 22.167,167.833 22.242,167.833 22.333 C 167.833 22.425,167.608 22.500,167.333 22.500 C 167.058 22.500,166.833 22.575,166.833 22.667 C 166.833 22.758,166.683 22.833,166.500 22.833 C 166.317 22.833,166.167 22.908,166.167 23.000 C 166.167 23.092,166.017 23.167,165.833 23.167 C 165.650 23.167,165.500 23.242,165.500 23.333 C 165.500 23.425,165.348 23.500,165.161 23.500 C 164.975 23.500,164.780 23.613,164.727 23.750 C 164.674 23.887,164.489 24.000,164.316 24.000 C 164.142 24.000,164.000 24.075,164.000 24.167 C 164.000 24.258,163.850 24.333,163.667 24.333 C 163.483 24.333,163.333 24.408,163.333 24.500 C 163.333 24.592,163.183 24.667,163.000 24.667 C 162.817 24.667,162.667 24.742,162.667 24.833 C 162.667 24.925,162.517 25.000,162.333 25.000 C 162.150 25.000,162.000 25.075,162.000 25.167 C 162.000 25.258,161.813 25.333,161.583 25.333 C 161.354 25.333,161.167 25.408,161.167 25.500 C 161.167 25.592,161.017 25.667,160.833 25.667 C 160.650 25.667,160.500 25.742,160.500 25.833 C 160.500 25.925,160.367 26.000,160.203 26.000 C 160.040 26.000,159.799 26.150,159.667 26.333 C 159.535 26.517,159.293 26.667,159.130 26.667 C 158.967 26.667,158.833 26.742,158.833 26.833 C 158.833 26.925,158.718 27.000,158.578 27.000 C 158.438 27.000,158.280 27.113,158.227 27.250 C 158.174 27.387,158.027 27.500,157.899 27.500 C 157.771 27.500,157.667 27.575,157.667 27.667 C 157.667 27.758,157.517 27.833,157.333 27.833 C 157.150 27.833,157.000 27.908,157.000 28.000 C 157.000 28.092,156.906 28.167,156.792 28.167 C 156.677 28.167,156.365 28.354,156.099 28.584 C 155.833 28.813,155.555 29.000,155.482 29.000 C 155.408 29.000,155.161 29.188,154.932 29.417 C 154.703 29.646,154.418 29.835,154.299 29.836 C 154.044 29.840,153.188 30.502,152.309 31.375 C 151.963 31.719,151.603 32.000,151.509 32.000 C 151.333 32.000,150.898 32.324,150.271 32.920 C 150.076 33.106,149.654 33.441,149.333 33.665 C 148.661 34.135,148.333 34.433,148.333 34.577 C 148.333 34.703,147.211 35.833,147.086 35.833 C 146.966 35.833,144.500 38.300,144.500 38.420 C 144.500 38.471,144.181 38.838,143.792 39.236 C 143.402 39.634,142.783 40.311,142.417 40.741 C 142.050 41.171,141.656 41.625,141.542 41.749 C 141.427 41.874,141.333 42.045,141.333 42.130 C 141.333 42.215,141.108 42.519,140.833 42.807 C 140.558 43.095,140.333 43.411,140.333 43.509 C 140.333 43.608,140.109 43.877,139.835 44.108 C 139.560 44.339,139.214 44.784,139.066 45.097 C 138.917 45.410,138.729 45.667,138.648 45.667 C 138.566 45.667,138.500 45.800,138.500 45.963 C 138.500 46.126,138.350 46.368,138.167 46.500 C 137.983 46.632,137.833 46.874,137.833 47.037 C 137.833 47.200,137.758 47.333,137.667 47.333 C 137.575 47.333,137.500 47.432,137.500 47.552 C 137.500 47.672,137.350 47.931,137.167 48.128 C 136.983 48.325,136.833 48.602,136.833 48.743 C 136.833 48.884,136.758 49.000,136.667 49.000 C 136.575 49.000,136.500 49.188,136.500 49.417 C 136.500 49.654,136.404 49.833,136.277 49.833 C 136.064 49.833,135.667 50.495,135.667 50.848 C 135.667 50.939,135.517 51.175,135.333 51.372 C 135.150 51.569,135.000 51.903,135.000 52.115 C 135.000 52.327,134.925 52.500,134.833 52.500 C 134.742 52.500,134.667 52.688,134.667 52.917 C 134.667 53.146,134.592 53.333,134.500 53.333 C 134.408 53.333,134.333 53.483,134.333 53.667 C 134.333 53.850,134.258 54.000,134.167 54.000 C 134.075 54.000,134.000 54.150,134.000 54.333 C 134.000 54.517,133.925 54.667,133.833 54.667 C 133.742 54.667,133.667 54.892,133.667 55.167 C 133.667 55.442,133.592 55.667,133.500 55.667 C 133.408 55.667,133.333 55.854,133.333 56.083 C 133.333 56.313,133.258 56.500,133.167 56.500 C 133.075 56.500,133.000 56.800,133.000 57.167 C 133.000 57.648,132.931 57.833,132.750 57.833 C 132.612 57.833,132.500 57.979,132.500 58.157 C 132.500 58.335,132.425 58.527,132.333 58.583 C 132.242 58.640,132.167 58.932,132.167 59.232 C 132.167 59.532,132.115 59.829,132.052 59.892 C 131.853 60.092,131.505 61.233,131.503 61.698 C 131.501 61.945,131.425 62.193,131.333 62.250 C 131.242 62.307,131.167 62.644,131.167 63.000 C 131.167 63.356,131.092 63.693,131.000 63.750 C 130.908 63.807,130.833 64.144,130.833 64.500 C 130.833 64.856,130.758 65.193,130.667 65.250 C 130.575 65.307,130.500 65.869,130.500 66.500 C 130.500 67.131,130.425 67.693,130.333 67.750 C 130.227 67.816,130.167 70.193,130.167 74.333 C 130.167 78.474,130.227 80.851,130.333 80.917 C 130.425 80.973,130.500 81.573,130.500 82.250 C 130.500 82.927,130.575 83.527,130.667 83.583 C 130.758 83.640,130.833 83.982,130.833 84.343 C 130.833 84.704,130.901 85.000,130.983 85.000 C 131.066 85.000,131.176 85.319,131.228 85.708 C 131.459 87.438,131.544 87.833,131.684 87.833 C 131.766 87.833,131.833 88.058,131.833 88.333 C 131.833 88.608,131.908 88.833,132.000 88.833 C 132.092 88.833,132.167 89.033,132.167 89.277 C 132.167 89.781,132.661 91.000,132.865 91.000 C 132.939 91.000,133.000 91.225,133.000 91.500 C 133.000 91.775,133.075 92.000,133.167 92.000 C 133.258 92.000,133.333 92.225,133.333 92.500 C 133.333 92.775,133.408 93.000,133.500 93.000 C 133.592 93.000,133.667 93.211,133.667 93.469 C 133.667 93.726,133.817 94.098,134.000 94.295 C 134.183 94.492,134.333 94.843,134.333 95.076 C 134.333 95.309,134.408 95.500,134.500 95.500 C 134.592 95.500,134.667 95.650,134.667 95.833 C 134.667 96.017,134.725 96.167,134.797 96.167 C 134.869 96.167,135.027 96.504,135.149 96.917 C 135.270 97.329,135.437 97.667,135.518 97.667 C 135.600 97.667,135.667 97.806,135.667 97.976 C 135.667 98.146,135.854 98.487,136.083 98.734 C 136.313 98.982,136.500 99.292,136.500 99.425 C 136.500 99.558,136.575 99.667,136.667 99.667 C 136.758 99.667,136.833 99.817,136.833 100.000 C 136.833 100.183,136.908 100.333,137.000 100.333 C 137.092 100.333,137.167 100.483,137.167 100.667 C 137.167 100.850,137.242 101.000,137.333 101.000 C 137.425 101.000,137.500 101.112,137.500 101.250 C 137.500 101.388,137.575 101.500,137.667 101.500 C 137.758 101.500,137.833 101.633,137.833 101.797 C 137.833 101.960,137.983 102.201,138.167 102.333 C 138.350 102.465,138.500 102.690,138.500 102.833 C 138.500 102.976,138.650 103.201,138.833 103.333 C 139.017 103.465,139.167 103.707,139.167 103.870 C 139.167 104.033,139.242 104.167,139.333 104.167 C 139.425 104.167,139.501 104.298,139.503 104.458 C 139.504 104.619,139.692 104.927,139.920 105.142 C 140.147 105.358,140.333 105.640,140.333 105.767 C 140.333 105.895,140.396 106.000,140.472 106.000 C 140.548 106.000,140.716 106.206,140.846 106.458 C 140.975 106.710,141.213 107.038,141.374 107.186 C 141.535 107.334,141.667 107.539,141.667 107.640 C 141.667 107.741,141.857 108.145,142.091 108.537 C 142.324 108.929,142.558 109.381,142.610 109.542 C 142.663 109.702,142.772 109.833,142.853 109.833 C 142.934 109.833,143.000 109.951,143.000 110.095 C 143.000 110.395,143.389 110.833,143.655 110.833 C 143.753 110.833,143.833 110.983,143.833 111.167 C 143.833 111.350,143.908 111.500,144.000 111.500 C 144.092 111.500,144.167 111.605,144.167 111.734 C 144.167 112.050,144.860 113.333,145.031 113.333 C 145.106 113.333,145.167 113.467,145.167 113.630 C 145.167 113.793,145.317 114.035,145.500 114.167 C 145.683 114.299,145.833 114.540,145.833 114.703 C 145.833 114.867,145.908 115.000,146.000 115.000 C 146.092 115.000,146.167 115.110,146.167 115.245 C 146.167 115.519,146.742 116.609,147.100 117.013 C 147.228 117.158,147.333 117.385,147.333 117.518 C 147.333 117.651,147.483 117.868,147.667 118.000 C 147.850 118.132,148.000 118.374,148.000 118.537 C 148.000 118.700,148.075 118.833,148.167 118.833 C 148.258 118.833,148.333 118.979,148.333 119.157 C 148.333 119.335,148.408 119.527,148.500 119.583 C 148.592 119.640,148.667 119.826,148.667 119.996 C 148.667 120.166,148.723 120.331,148.792 120.361 C 148.948 120.431,149.489 121.318,149.613 121.708 C 149.664 121.869,149.772 122.000,149.853 122.000 C 149.934 122.000,150.000 122.109,150.000 122.242 C 150.000 122.375,150.229 122.881,150.509 123.367 C 150.789 123.853,151.060 124.381,151.112 124.542 C 151.163 124.702,151.272 124.833,151.353 124.833 C 151.434 124.833,151.500 124.944,151.500 125.078 C 151.500 125.213,151.650 125.590,151.833 125.917 C 152.017 126.243,152.167 126.620,152.167 126.755 C 152.167 126.890,152.242 127.000,152.333 127.000 C 152.425 127.000,152.500 127.150,152.500 127.333 C 152.500 127.517,152.561 127.667,152.637 127.667 C 152.712 127.667,152.875 128.042,153.000 128.500 C 153.125 128.958,153.288 129.333,153.363 129.333 C 153.439 129.333,153.500 129.483,153.500 129.667 C 153.500 129.850,153.575 130.000,153.667 130.000 C 153.758 130.000,153.833 130.101,153.833 130.224 C 153.833 130.559,154.334 131.500,154.512 131.500 C 154.597 131.500,154.667 131.725,154.667 132.000 C 154.667 132.275,154.742 132.500,154.833 132.500 C 154.925 132.500,155.000 132.650,155.000 132.833 C 155.000 133.017,155.075 133.167,155.167 133.167 C 155.258 133.167,155.333 133.352,155.333 133.578 C 155.333 133.805,155.483 134.257,155.667 134.583 C 155.850 134.910,156.000 135.362,156.000 135.588 C 156.000 135.815,156.075 136.000,156.167 136.000 C 156.258 136.000,156.333 136.150,156.333 136.333 C 156.333 136.517,156.408 136.667,156.500 136.667 C 156.592 136.667,156.667 136.887,156.667 137.157 C 156.667 137.426,156.742 137.693,156.833 137.750 C 156.925 137.807,157.000 137.999,157.000 138.177 C 157.000 138.354,157.075 138.500,157.167 138.500 C 157.258 138.500,157.333 138.725,157.333 139.000 C 157.333 139.275,157.408 139.500,157.500 139.500 C 157.592 139.500,157.667 139.683,157.667 139.907 C 157.667 140.131,157.733 140.355,157.814 140.405 C 157.896 140.455,158.012 140.760,158.072 141.081 C 158.132 141.403,158.253 141.667,158.341 141.667 C 158.428 141.667,158.500 141.892,158.500 142.167 C 158.500 142.442,158.575 142.667,158.667 142.667 C 158.758 142.667,158.833 142.967,158.833 143.333 C 158.833 143.700,158.908 144.000,159.000 144.000 C 159.092 144.000,159.167 144.188,159.167 144.417 C 159.167 144.646,159.242 144.833,159.333 144.833 C 159.425 144.833,159.500 145.166,159.500 145.573 C 159.500 145.981,159.575 146.360,159.667 146.417 C 159.758 146.473,159.833 146.665,159.833 146.843 C 159.833 147.021,159.908 147.167,160.000 147.167 C 160.092 147.167,160.167 147.537,160.167 147.990 C 160.167 148.443,160.242 148.860,160.333 148.917 C 160.425 148.973,160.500 149.240,160.500 149.510 C 160.500 149.779,160.568 150.000,160.651 150.000 C 160.734 150.000,160.842 150.394,160.891 150.875 C 161.028 152.218,161.189 152.994,161.352 153.095 C 161.433 153.145,161.500 153.552,161.500 153.998 C 161.500 154.497,161.596 154.906,161.750 155.060 C 161.890 155.200,162.000 155.607,162.000 155.988 C 162.000 156.361,162.075 156.667,162.167 156.667 C 162.259 156.667,162.333 157.111,162.333 157.667 C 162.333 158.222,162.407 158.667,162.500 158.667 C 162.592 158.667,162.667 158.929,162.667 159.250 C 162.667 159.571,162.742 159.833,162.833 159.833 C 162.925 159.833,163.000 160.166,163.000 160.573 C 163.000 160.981,163.075 161.360,163.167 161.417 C 163.258 161.473,163.333 161.665,163.333 161.843 C 163.333 162.021,163.408 162.167,163.500 162.167 C 163.592 162.167,163.667 162.387,163.667 162.657 C 163.667 162.926,163.742 163.193,163.833 163.250 C 163.925 163.307,164.000 163.499,164.000 163.677 C 164.000 163.854,164.066 164.000,164.146 164.000 C 164.226 164.000,164.335 164.216,164.388 164.480 C 164.440 164.744,164.600 165.076,164.742 165.218 C 164.884 165.360,165.000 165.594,165.000 165.738 C 165.000 165.882,165.112 166.000,165.250 166.000 C 165.387 166.000,165.500 166.133,165.500 166.297 C 165.500 166.673,167.543 168.833,167.900 168.833 C 168.047 168.833,168.167 168.908,168.167 169.000 C 168.167 169.092,168.317 169.167,168.500 169.167 C 168.683 169.167,168.833 169.242,168.833 169.333 C 168.833 169.425,169.021 169.500,169.250 169.500 C 169.479 169.500,169.667 169.575,169.667 169.667 C 169.667 169.758,169.810 169.833,169.986 169.833 C 170.162 169.833,170.332 169.912,170.364 170.009 C 170.444 170.247,171.537 170.527,172.750 170.619 C 173.300 170.661,173.821 170.763,173.908 170.847 C 174.115 171.046,183.175 171.042,183.489 170.843 C 183.666 170.732,183.681 170.634,183.547 170.471 C 183.421 170.317,183.405 169.382,183.497 167.373 C 183.632 164.417,183.609 162.884,183.325 155.833 C 183.033 148.603,182.491 142.564,181.492 135.417 C 181.299 134.042,181.044 132.204,180.924 131.333 C 180.556 128.655,180.155 125.958,179.996 125.083 C 179.912 124.625,179.758 123.612,179.654 122.833 C 179.549 122.054,179.397 121.199,179.315 120.933 C 179.233 120.668,179.167 120.238,179.167 119.978 C 179.167 119.718,179.095 119.185,179.007 118.794 C 178.919 118.403,178.762 117.633,178.657 117.083 C 178.553 116.533,178.398 115.746,178.312 115.333 C 178.226 114.921,177.931 113.458,177.657 112.083 C 177.145 109.510,176.648 107.253,176.339 106.083 C 176.241 105.717,176.095 105.117,176.013 104.750 C 175.626 103.017,173.785 96.341,173.002 93.833 C 172.930 93.604,172.780 93.079,172.667 92.667 C 172.554 92.254,172.404 91.767,172.334 91.583 C 172.264 91.400,172.038 90.688,171.833 90.000 C 171.628 89.313,171.401 88.600,171.328 88.417 C 171.255 88.233,170.623 86.358,169.924 84.250 C 169.224 82.142,168.585 80.267,168.504 80.083 C 168.423 79.900,168.265 79.450,168.153 79.083 C 167.694 77.579,167.984 77.666,163.439 77.669 L 159.417 77.671 157.081 79.544 C 155.797 80.574,153.785 82.197,152.611 83.151 L 150.476 84.885 149.135 84.868 C 147.074 84.841,146.973 84.986,151.737 81.142 C 153.595 79.643,155.242 78.248,155.398 78.042 L 155.682 77.667 153.950 77.667 L 152.218 77.667 151.375 78.292 C 150.911 78.635,149.945 79.404,149.228 80.000 L 147.923 81.083 146.628 81.069 C 144.987 81.050,144.916 80.963,145.851 80.113 C 146.271 79.730,147.021 79.042,147.516 78.583 L 148.417 77.750 147.417 77.707 C 145.577 77.628,145.667 77.720,145.667 75.913 L 145.667 74.333 147.000 74.333 C 148.728 74.333,148.715 74.239,146.745 72.530 C 144.912 70.940,144.905 70.833,146.635 70.834 C 147.875 70.835,147.943 70.856,148.750 71.494 C 149.208 71.856,150.221 72.645,151.000 73.246 L 152.417 74.340 154.000 74.295 C 154.919 74.269,155.581 74.180,155.578 74.083 C 155.573 73.926,153.841 72.444,149.777 69.120 C 147.717 67.435,147.704 67.333,149.554 67.333 L 150.922 67.333 153.323 69.292 C 154.643 70.369,156.592 71.946,157.653 72.796 L 159.583 74.342 164.667 74.267 C 167.462 74.227,169.916 74.186,170.119 74.178 C 170.352 74.168,170.671 73.903,170.987 73.456 C 173.554 69.831,177.384 68.209,180.228 69.542 C 181.443 70.111,181.281 70.131,182.197 69.292 C 183.439 68.153,185.647 67.197,186.609 67.382 C 187.946 67.638,189.095 68.099,190.348 68.881 C 190.592 69.034,190.869 68.827,192.119 67.558 C 195.768 63.852,198.942 63.963,203.002 67.937 L 204.253 69.163 205.214 68.584 C 208.111 66.839,210.141 67.023,212.777 69.267 C 213.795 70.135,213.598 70.108,214.787 69.542 C 217.377 68.309,220.675 69.503,223.407 72.664 C 224.903 74.394,224.599 74.331,231.448 74.332 C 237.548 74.333,237.488 74.343,236.991 73.485 C 235.581 71.052,234.775 68.940,234.865 67.912 L 234.917 67.314 236.417 68.452 C 239.771 70.997,243.495 72.842,250.500 75.432 C 252.531 76.182,252.516 76.227,249.897 77.188 C 244.301 79.241,239.453 81.717,236.186 84.190 C 234.938 85.135,234.833 85.161,234.833 84.518 C 234.833 83.362,235.905 80.725,237.115 78.902 C 237.965 77.622,238.141 77.667,232.244 77.667 L 227.008 77.667 226.746 78.066 C 226.470 78.487,225.679 80.450,225.161 82.000 C 224.993 82.504,224.596 83.667,224.280 84.583 C 223.271 87.510,221.379 93.620,220.650 96.307 C 220.459 97.009,220.240 97.808,220.163 98.083 C 219.276 101.248,217.433 108.710,216.830 111.583 C 216.753 111.950,216.611 112.587,216.514 113.000 C 216.237 114.182,215.297 119.332,214.917 121.750 C 214.664 123.360,214.249 126.130,214.080 127.333 C 214.035 127.654,213.926 128.367,213.837 128.917 C 213.749 129.467,213.595 130.554,213.495 131.333 C 213.396 132.112,213.246 133.275,213.163 133.917 C 212.261 140.897,211.769 145.442,211.505 149.250 C 211.403 150.717,211.245 152.817,211.154 153.917 C 211.063 155.017,210.943 159.142,210.888 163.083 C 210.827 167.485,210.723 170.332,210.620 170.462 C 210.528 170.579,210.507 170.729,210.573 170.796 C 210.776 170.999,219.522 171.045,219.723 170.844 C 219.820 170.746,220.279 170.663,220.742 170.659 C 221.758 170.650,223.209 170.291,223.297 170.025 C 223.332 169.920,223.538 169.833,223.754 169.833 C 223.970 169.833,224.193 169.758,224.250 169.667 C 224.307 169.575,224.520 169.500,224.723 169.500 C 224.927 169.500,225.201 169.350,225.333 169.167 C 225.465 168.983,225.675 168.833,225.800 168.833 C 225.924 168.833,226.314 168.533,226.667 168.167 C 227.019 167.800,227.375 167.500,227.459 167.500 C 227.542 167.500,227.711 167.313,227.833 167.083 C 227.956 166.854,228.119 166.667,228.195 166.667 C 228.271 166.667,228.333 166.517,228.333 166.333 C 228.333 166.150,228.408 166.000,228.500 166.000 C 228.592 166.000,228.667 165.884,228.667 165.743 C 228.667 165.602,228.817 165.325,229.000 165.128 C 229.183 164.931,229.333 164.597,229.333 164.385 C 229.333 164.173,229.408 164.000,229.500 164.000 C 229.592 164.000,229.667 163.854,229.667 163.677 C 229.667 163.499,229.742 163.307,229.833 163.250 C 229.925 163.193,230.000 162.926,230.000 162.657 C 230.000 162.387,230.075 162.167,230.167 162.167 C 230.258 162.167,230.333 162.021,230.333 161.843 C 230.333 161.665,230.408 161.473,230.500 161.417 C 230.592 161.360,230.667 160.987,230.667 160.587 C 230.667 160.188,230.746 159.835,230.842 159.803 C 231.060 159.730,231.347 158.686,231.452 157.583 C 231.495 157.125,231.599 156.679,231.682 156.592 C 231.765 156.505,231.833 156.148,231.833 155.800 C 231.833 155.452,231.908 155.167,232.000 155.167 C 232.093 155.167,232.167 154.722,232.167 154.167 C 232.167 153.617,232.234 153.167,232.316 153.167 C 232.467 153.167,232.607 152.464,232.773 150.875 C 232.823 150.394,232.932 150.000,233.015 150.000 C 233.099 150.000,233.167 149.775,233.167 149.500 C 233.167 149.225,233.242 149.000,233.333 149.000 C 233.425 149.000,233.500 148.587,233.500 148.083 C 233.500 147.579,233.575 147.167,233.667 147.167 C 233.758 147.167,233.833 147.021,233.833 146.843 C 233.833 146.665,233.908 146.473,234.000 146.417 C 234.092 146.360,234.167 145.987,234.167 145.587 C 234.167 145.188,234.223 144.836,234.292 144.806 C 234.505 144.711,235.000 143.510,235.000 143.088 C 235.000 142.867,235.075 142.640,235.167 142.583 C 235.258 142.527,235.333 142.302,235.333 142.083 C 235.333 141.865,235.408 141.640,235.500 141.583 C 235.592 141.527,235.667 141.260,235.667 140.990 C 235.667 140.721,235.742 140.500,235.833 140.500 C 235.925 140.500,236.000 140.275,236.000 140.000 C 236.000 139.725,236.075 139.500,236.167 139.500 C 236.258 139.500,236.333 139.275,236.333 139.000 C 236.333 138.725,236.408 138.500,236.500 138.500 C 236.592 138.500,236.667 138.354,236.667 138.177 C 236.667 137.999,236.742 137.807,236.833 137.750 C 236.925 137.693,237.000 137.426,237.000 137.157 C 237.000 136.887,237.075 136.667,237.167 136.667 C 237.258 136.667,237.333 136.517,237.333 136.333 C 237.333 136.150,237.408 136.000,237.500 136.000 C 237.592 136.000,237.667 135.779,237.667 135.510 C 237.667 135.240,237.742 134.973,237.833 134.917 C 237.925 134.860,238.000 134.668,238.000 134.490 C 238.000 134.312,238.074 134.167,238.163 134.167 C 238.253 134.167,238.378 133.960,238.441 133.708 C 238.504 133.456,238.693 133.004,238.861 132.703 C 239.029 132.403,239.167 132.009,239.167 131.828 C 239.167 131.648,239.242 131.500,239.333 131.500 C 239.425 131.500,239.500 131.350,239.500 131.167 C 239.500 130.983,239.575 130.833,239.667 130.833 C 239.758 130.833,239.833 130.646,239.833 130.417 C 239.833 130.188,239.908 130.000,240.000 130.000 C 240.092 130.000,240.167 129.850,240.167 129.667 C 240.167 129.483,240.242 129.333,240.333 129.333 C 240.425 129.333,240.500 129.146,240.500 128.917 C 240.500 128.688,240.575 128.500,240.667 128.500 C 240.758 128.500,240.833 128.313,240.833 128.083 C 240.833 127.854,240.890 127.666,240.958 127.665 C 241.089 127.664,241.500 126.873,241.500 126.622 C 241.500 126.543,241.688 126.232,241.917 125.931 C 242.146 125.631,242.333 125.261,242.333 125.109 C 242.333 124.958,242.390 124.833,242.458 124.832 C 242.608 124.830,243.000 124.023,243.000 123.717 C 243.000 123.598,243.075 123.500,243.167 123.500 C 243.258 123.500,243.333 123.354,243.333 123.177 C 243.333 122.999,243.408 122.807,243.500 122.750 C 243.592 122.693,243.667 122.501,243.667 122.323 C 243.667 122.146,243.742 122.000,243.833 122.000 C 243.925 122.000,244.000 121.884,244.000 121.743 C 244.000 121.602,244.150 121.325,244.333 121.128 C 244.517 120.931,244.667 120.672,244.667 120.552 C 244.667 120.432,244.742 120.333,244.833 120.333 C 244.925 120.333,245.000 120.188,245.000 120.010 C 245.000 119.832,245.075 119.640,245.167 119.583 C 245.258 119.527,245.333 119.335,245.333 119.157 C 245.333 118.979,245.411 118.833,245.505 118.833 C 245.600 118.833,245.727 118.702,245.788 118.542 C 245.850 118.381,246.035 118.105,246.200 117.927 C 246.365 117.749,246.500 117.465,246.500 117.295 C 246.500 117.125,246.650 116.825,246.833 116.628 C 247.017 116.431,247.167 116.172,247.167 116.052 C 247.167 115.932,247.242 115.833,247.333 115.833 C 247.425 115.833,247.500 115.646,247.500 115.417 C 247.500 115.188,247.575 115.000,247.667 115.000 C 247.758 115.000,247.833 114.867,247.833 114.703 C 247.833 114.540,247.983 114.299,248.167 114.167 C 248.350 114.035,248.500 113.821,248.500 113.691 C 248.500 113.562,248.633 113.334,248.795 113.186 C 248.957 113.038,249.238 112.599,249.420 112.210 C 249.601 111.822,249.806 111.503,249.875 111.502 C 249.944 111.501,250.000 111.367,250.000 111.203 C 250.000 111.040,250.150 110.799,250.333 110.667 C 250.517 110.535,250.667 110.327,250.667 110.206 C 250.667 110.085,250.817 109.825,251.000 109.628 C 251.183 109.431,251.333 109.172,251.333 109.052 C 251.333 108.932,251.408 108.833,251.500 108.833 C 251.592 108.833,251.667 108.683,251.667 108.500 C 251.667 108.317,251.742 108.167,251.833 108.167 C 251.925 108.167,252.000 107.996,252.000 107.787 C 252.000 107.578,252.150 107.299,252.333 107.167 C 252.517 107.035,252.667 106.834,252.667 106.721 C 252.667 106.609,252.766 106.457,252.886 106.383 C 253.214 106.185,254.167 104.730,254.167 104.428 C 254.167 104.284,254.242 104.167,254.333 104.167 C 254.425 104.167,254.500 104.033,254.500 103.870 C 254.500 103.707,254.650 103.465,254.833 103.333 C 255.017 103.201,255.167 102.976,255.167 102.833 C 255.167 102.690,255.317 102.465,255.500 102.333 C 255.683 102.201,255.833 101.960,255.833 101.797 C 255.833 101.633,255.908 101.500,256.000 101.500 C 256.092 101.500,256.167 101.388,256.167 101.250 C 256.167 101.112,256.230 101.000,256.308 101.000 C 256.386 101.000,256.585 100.700,256.750 100.333 C 256.915 99.967,257.114 99.667,257.192 99.667 C 257.270 99.667,257.333 99.551,257.333 99.410 C 257.333 99.268,257.483 98.992,257.667 98.795 C 257.850 98.598,258.000 98.264,258.000 98.052 C 258.000 97.840,258.056 97.666,258.125 97.665 C 258.294 97.664,258.667 96.839,258.667 96.467 C 258.667 96.302,258.742 96.167,258.833 96.167 C 258.925 96.167,259.000 96.017,259.000 95.833 C 259.000 95.650,259.075 95.500,259.167 95.500 C 259.258 95.500,259.333 95.275,259.333 95.000 C 259.333 94.725,259.408 94.500,259.500 94.500 C 259.592 94.500,259.667 94.388,259.667 94.250 C 259.667 94.112,259.735 94.000,259.819 94.000 C 259.902 94.000,260.021 93.700,260.083 93.333 C 260.145 92.967,260.264 92.667,260.348 92.667 C 260.432 92.667,260.500 92.517,260.500 92.333 C 260.500 92.150,260.575 92.000,260.667 92.000 C 260.758 92.000,260.833 91.775,260.833 91.500 C 260.833 91.225,260.908 91.000,261.000 91.000 C 261.092 91.000,261.167 90.813,261.167 90.583 C 261.167 90.354,261.242 90.167,261.333 90.167 C 261.425 90.167,261.500 89.867,261.500 89.500 C 261.500 89.133,261.575 88.833,261.667 88.833 C 261.758 88.833,261.833 88.608,261.833 88.333 C 261.833 88.058,261.908 87.833,262.000 87.833 C 262.092 87.833,262.167 87.575,262.167 87.260 C 262.167 86.944,262.242 86.640,262.333 86.583 C 262.425 86.527,262.500 86.147,262.500 85.740 C 262.500 85.333,262.575 85.000,262.667 85.000 C 262.758 85.000,262.833 84.662,262.833 84.250 C 262.833 83.837,262.908 83.500,263.000 83.500 C 263.097 83.500,263.167 82.944,263.167 82.167 C 263.167 81.389,263.236 80.833,263.333 80.833 C 263.442 80.833,263.500 78.587,263.500 74.427 C 263.500 70.335,263.440 67.982,263.333 67.917 C 263.242 67.860,263.167 67.218,263.167 66.490 C 263.167 65.719,263.097 65.167,263.000 65.167 C 262.908 65.167,262.833 64.871,262.833 64.510 C 262.833 64.149,262.758 63.807,262.667 63.750 C 262.575 63.693,262.500 63.356,262.500 63.000 C 262.500 62.644,262.425 62.307,262.333 62.250 C 262.242 62.193,262.167 61.893,262.167 61.583 C 262.167 61.273,262.092 60.973,262.000 60.917 C 261.908 60.860,261.833 60.593,261.833 60.323 C 261.833 60.054,261.758 59.833,261.667 59.833 C 261.575 59.833,261.500 59.533,261.500 59.167 C 261.500 58.800,261.425 58.500,261.333 58.500 C 261.242 58.500,261.167 58.350,261.167 58.167 C 261.167 57.983,261.092 57.833,261.000 57.833 C 260.908 57.833,260.833 57.533,260.833 57.167 C 260.833 56.800,260.758 56.500,260.667 56.500 C 260.575 56.500,260.498 56.369,260.495 56.208 C 260.492 56.048,260.379 55.771,260.245 55.593 C 260.110 55.415,260.000 55.134,260.000 54.968 C 260.000 54.802,259.925 54.667,259.833 54.667 C 259.742 54.667,259.667 54.517,259.667 54.333 C 259.667 54.150,259.592 54.000,259.500 54.000 C 259.408 54.000,259.333 53.854,259.333 53.677 C 259.333 53.499,259.258 53.307,259.167 53.250 C 259.075 53.193,259.000 53.001,259.000 52.823 C 259.000 52.646,258.925 52.500,258.833 52.500 C 258.742 52.500,258.667 52.292,258.667 52.037 C 258.667 51.765,258.529 51.474,258.333 51.333 C 258.150 51.201,258.000 50.936,258.000 50.745 C 258.000 50.553,257.850 50.235,257.667 50.038 C 257.483 49.842,257.333 49.614,257.333 49.533 C 257.333 49.253,256.836 48.387,256.501 48.084 C 256.317 47.918,256.167 47.681,256.167 47.558 C 256.167 47.434,256.092 47.333,256.000 47.333 C 255.908 47.333,255.833 47.200,255.833 47.037 C 255.833 46.874,255.683 46.632,255.500 46.500 C 255.317 46.368,255.167 46.126,255.167 45.963 C 255.167 45.800,255.092 45.667,255.000 45.667 C 254.908 45.667,254.833 45.554,254.833 45.417 C 254.833 45.279,254.758 45.167,254.667 45.167 C 254.575 45.167,254.500 45.065,254.500 44.941 C 254.500 44.817,254.275 44.481,254.000 44.193 C 253.725 43.905,253.500 43.589,253.500 43.490 C 253.500 43.258,253.077 42.833,252.845 42.833 C 252.747 42.833,252.667 42.700,252.667 42.537 C 252.667 42.374,252.517 42.132,252.333 42.000 C 252.150 41.868,252.000 41.695,252.000 41.617 C 252.000 41.538,251.700 41.186,251.333 40.833 C 250.967 40.481,250.667 40.110,250.667 40.009 C 250.667 39.779,245.731 34.833,245.501 34.833 C 245.409 34.833,245.333 34.750,245.333 34.647 C 245.333 34.435,244.177 33.333,243.954 33.333 C 243.873 33.333,243.519 33.033,243.167 32.667 C 242.814 32.300,242.445 32.000,242.346 32.000 C 242.248 32.000,242.167 31.925,242.167 31.833 C 242.167 31.742,242.044 31.667,241.894 31.667 C 241.744 31.667,241.397 31.404,241.123 31.083 C 240.848 30.762,240.549 30.500,240.457 30.500 C 240.365 30.500,240.168 30.368,240.020 30.207 C 239.871 30.046,239.544 29.808,239.292 29.679 C 239.040 29.550,238.833 29.381,238.833 29.305 C 238.833 29.229,238.721 29.167,238.583 29.167 C 238.446 29.167,238.333 29.092,238.333 29.000 C 238.333 28.908,238.200 28.833,238.037 28.833 C 237.874 28.833,237.632 28.683,237.500 28.500 C 237.368 28.317,237.161 28.167,237.040 28.167 C 236.918 28.167,236.658 28.017,236.462 27.833 C 236.265 27.650,236.005 27.500,235.885 27.500 C 235.765 27.500,235.667 27.430,235.667 27.346 C 235.667 27.178,234.733 26.667,234.428 26.667 C 234.325 26.667,234.132 26.517,234.000 26.333 C 233.868 26.150,233.626 26.000,233.463 26.000 C 233.300 26.000,233.167 25.925,233.167 25.833 C 233.167 25.742,233.017 25.667,232.833 25.667 C 232.650 25.667,232.500 25.592,232.500 25.500 C 232.500 25.408,232.350 25.333,232.167 25.333 C 231.983 25.333,231.833 25.258,231.833 25.167 C 231.833 25.075,231.721 25.000,231.583 25.000 C 231.446 25.000,231.333 24.925,231.333 24.833 C 231.333 24.742,231.125 24.667,230.870 24.667 C 230.598 24.667,230.308 24.529,230.167 24.333 C 230.026 24.138,229.735 24.000,229.463 24.000 C 229.208 24.000,229.000 23.932,229.000 23.848 C 229.000 23.676,227.382 22.833,227.051 22.833 C 226.931 22.833,226.833 22.758,226.833 22.667 C 226.833 22.575,226.608 22.500,226.333 22.500 C 226.058 22.500,225.833 22.425,225.833 22.333 C 225.833 22.242,225.683 22.167,225.500 22.167 C 225.317 22.167,225.167 22.092,225.167 22.000 C 225.167 21.908,224.942 21.833,224.667 21.833 C 224.392 21.833,224.167 21.758,224.167 21.667 C 224.167 21.575,223.979 21.500,223.750 21.500 C 223.521 21.500,223.333 21.425,223.333 21.333 C 223.333 21.242,223.108 21.167,222.833 21.167 C 222.558 21.167,222.333 21.092,222.333 21.000 C 222.333 20.908,222.108 20.833,221.833 20.833 C 221.558 20.833,221.333 20.758,221.333 20.667 C 221.333 20.575,221.071 20.500,220.750 20.500 C 220.429 20.500,220.167 20.425,220.167 20.333 C 220.167 20.242,219.988 20.167,219.770 20.167 C 219.552 20.167,219.281 20.054,219.167 19.917 C 219.053 19.779,218.710 19.667,218.406 19.667 C 218.102 19.667,217.807 19.592,217.750 19.500 C 217.693 19.408,217.479 19.333,217.273 19.333 C 217.068 19.333,216.829 19.266,216.742 19.184 C 216.655 19.101,216.283 18.992,215.917 18.940 C 214.504 18.741,213.994 18.625,213.905 18.482 C 213.855 18.400,213.443 18.333,212.990 18.333 C 212.537 18.333,212.167 18.258,212.167 18.167 C 212.167 18.074,211.722 18.000,211.167 18.000 C 210.611 18.000,210.167 17.926,210.167 17.833 C 210.167 17.742,209.754 17.667,209.250 17.667 C 208.746 17.667,208.333 17.592,208.333 17.500 C 208.333 17.401,207.694 17.333,206.750 17.333 C 205.806 17.333,205.167 17.266,205.167 17.167 C 205.167 17.058,202.309 17.000,196.927 17.000 C 191.613 17.000,188.650 17.059,188.583 17.167 M196.500 68.667 C 195.601 68.831,194.987 69.220,193.952 70.278 C 192.824 71.431,192.831 71.380,193.628 72.705 C 194.247 73.735,195.052 75.330,195.558 76.529 C 196.380 78.479,197.070 82.152,196.945 83.920 C 196.787 86.165,196.626 86.843,195.842 88.564 C 194.872 90.693,192.444 91.688,190.536 90.737 C 189.163 90.052,187.167 87.424,187.167 86.300 C 187.167 86.124,187.104 86.019,187.026 86.067 C 186.949 86.115,186.881 86.477,186.875 86.872 C 186.801 91.786,182.613 94.523,179.319 91.810 C 176.978 89.883,175.988 83.919,177.256 79.384 C 177.878 77.161,178.561 75.046,178.833 74.500 C 179.403 73.358,179.401 73.210,178.814 72.907 C 177.219 72.082,174.450 73.681,172.749 76.410 C 171.848 77.856,171.800 78.334,172.409 79.833 C 173.171 81.711,176.129 90.682,176.915 93.500 C 177.132 94.279,177.470 95.442,177.666 96.083 C 178.345 98.312,180.280 105.952,181.063 109.500 C 181.275 110.462,181.492 111.362,181.545 111.500 C 181.597 111.638,181.725 112.275,181.830 112.917 C 181.934 113.558,182.160 114.721,182.333 115.500 C 182.860 117.879,183.495 121.222,183.748 122.946 C 183.879 123.847,184.075 125.052,184.183 125.625 L 184.379 126.667 197.263 126.667 C 204.407 126.667,210.187 126.602,210.237 126.521 C 210.286 126.442,210.440 125.673,210.578 124.813 C 210.993 122.227,212.286 115.206,212.645 113.583 C 212.726 113.217,212.956 112.204,213.155 111.333 C 213.355 110.462,213.700 108.925,213.924 107.917 C 214.527 105.191,215.482 101.342,216.073 99.250 C 217.220 95.195,218.393 91.153,218.783 89.917 C 219.829 86.597,222.134 79.829,222.571 78.797 C 223.632 76.291,218.919 71.891,216.220 72.867 C 215.585 73.097,215.576 73.130,215.930 73.964 C 219.997 83.546,218.479 92.997,212.891 92.877 C 210.115 92.818,208.643 90.932,208.176 86.833 C 208.108 86.237,208.040 85.862,208.026 86.000 C 207.796 88.130,204.786 91.161,202.895 91.165 C 197.346 91.178,196.479 79.551,201.504 72.494 C 202.579 70.984,198.960 68.217,196.500 68.667 M184.917 71.411 C 183.571 72.195,183.530 72.400,184.381 74.100 C 185.089 75.515,186.263 78.797,186.368 79.654 C 186.452 80.346,186.748 80.200,186.782 79.450 C 186.825 78.475,187.366 76.459,188.195 74.186 C 189.017 71.929,189.036 71.993,187.294 71.141 C 186.759 70.880,185.604 71.011,184.917 71.411 M207.250 71.345 C 206.011 71.962,205.911 72.156,206.343 73.102 C 206.926 74.379,207.818 77.137,207.936 78.030 C 207.996 78.476,208.109 78.881,208.189 78.930 C 208.268 78.979,208.344 79.334,208.356 79.718 C 208.370 80.140,208.406 80.251,208.446 80.000 C 208.483 79.771,208.577 79.433,208.654 79.250 C 208.731 79.067,208.965 78.354,209.175 77.667 C 209.385 76.979,209.959 75.557,210.451 74.506 C 211.343 72.598,211.344 72.594,211.034 72.179 C 210.246 71.123,208.478 70.734,207.250 71.345 M191.055 75.033 C 190.131 76.237,189.281 81.463,189.625 83.825 C 190.351 88.803,193.792 88.809,193.970 83.833 C 194.087 80.548,191.897 73.936,191.055 75.033 M203.229 75.689 C 199.940 80.679,200.416 89.431,203.850 87.119 C 205.952 85.703,206.046 78.709,204.007 75.439 L 203.709 74.962 203.229 75.689 M181.350 76.404 C 181.145 76.869,180.914 77.400,180.835 77.583 C 180.127 79.246,179.397 83.695,179.595 85.148 C 179.665 85.662,179.733 86.158,179.745 86.250 C 180.071 88.648,181.866 90.051,183.210 88.958 C 184.677 87.762,184.065 80.247,182.196 76.505 L 181.722 75.557 181.350 76.404 M212.767 76.554 C 210.894 80.571,210.338 87.935,211.828 88.997 C 214.088 90.606,215.816 87.199,215.292 82.167 C 215.118 80.491,213.765 76.042,213.283 75.560 C 213.263 75.541,213.031 75.988,212.767 76.554 M185.099 130.808 C 185.051 130.885,185.169 132.142,185.360 133.599 C 185.552 135.057,185.733 136.475,185.763 136.750 C 185.793 137.025,185.969 138.637,186.154 140.333 C 186.338 142.029,186.562 144.092,186.651 144.917 C 186.740 145.742,186.931 148.517,187.076 151.083 C 187.220 153.650,187.414 156.313,187.506 157.000 C 187.855 159.602,188.019 170.225,187.714 170.457 C 187.155 170.880,187.908 170.917,197.250 170.917 C 206.110 170.917,207.420 170.863,206.868 170.522 C 206.615 170.365,206.861 160.023,207.257 154.167 C 207.396 152.104,207.538 149.967,207.573 149.417 C 207.607 148.867,207.797 146.879,207.994 145.000 C 208.191 143.121,208.425 140.833,208.515 139.917 C 208.605 139.000,208.834 137.012,209.024 135.500 C 209.214 133.987,209.406 132.281,209.449 131.708 L 209.528 130.667 197.357 130.667 C 190.663 130.667,185.147 130.730,185.099 130.808 M172.250 175.000 C 172.193 175.092,171.964 175.167,171.740 175.167 C 171.516 175.167,171.333 175.242,171.333 175.333 C 171.333 175.425,171.217 175.500,171.076 175.500 C 170.934 175.500,170.634 175.684,170.409 175.909 C 170.184 176.134,170.000 176.434,170.000 176.576 C 170.000 176.717,169.925 176.833,169.833 176.833 C 169.729 176.833,169.667 177.889,169.667 179.667 C 169.667 181.444,169.729 182.500,169.833 182.500 C 169.925 182.500,170.000 182.594,170.000 182.708 C 170.001 183.031,170.757 183.833,171.061 183.833 C 171.211 183.833,171.333 183.908,171.333 184.000 C 171.333 184.110,179.944 184.167,196.833 184.167 C 213.722 184.167,222.333 184.110,222.333 184.000 C 222.333 183.908,222.449 183.833,222.591 183.833 C 222.869 183.833,223.667 183.113,223.667 182.861 C 223.667 182.777,223.779 182.614,223.917 182.500 C 224.120 182.332,224.167 181.797,224.167 179.667 C 224.167 177.536,224.120 177.002,223.917 176.833 C 223.779 176.719,223.667 176.557,223.667 176.472 C 223.667 176.220,222.869 175.500,222.591 175.500 C 222.449 175.500,222.333 175.425,222.333 175.333 C 222.333 175.242,222.150 175.167,221.927 175.167 C 221.703 175.167,221.473 175.092,221.417 175.000 C 221.349 174.890,212.974 174.833,196.833 174.833 C 180.693 174.833,172.318 174.890,172.250 175.000 M172.333 187.500 C 172.196 187.589,171.911 187.663,171.700 187.664 C 171.466 187.666,170.998 187.986,170.492 188.492 L 169.667 189.317 169.667 192.122 C 169.667 194.735,169.689 194.943,170.000 195.167 C 170.183 195.299,170.333 195.535,170.333 195.692 C 170.333 195.849,170.483 196.025,170.667 196.083 C 170.850 196.142,171.000 196.259,171.000 196.345 C 171.000 196.430,171.150 196.500,171.333 196.500 C 171.517 196.500,171.667 196.575,171.667 196.667 C 171.667 196.777,180.140 196.833,196.752 196.833 C 222.650 196.833,222.103 196.846,222.797 196.208 C 222.922 196.094,223.093 196.000,223.179 196.000 C 223.264 196.000,223.333 195.898,223.333 195.773 C 223.333 195.649,223.521 195.406,223.750 195.234 C 224.165 194.922,224.167 194.908,224.167 192.197 L 224.167 189.472 223.583 188.906 C 223.262 188.594,223.000 188.290,223.000 188.230 C 223.000 188.002,222.399 187.677,221.968 187.672 C 221.721 187.669,221.473 187.592,221.417 187.500 C 221.277 187.274,172.683 187.274,172.333 187.500 M171.750 200.167 C 171.693 200.258,171.537 200.333,171.402 200.333 C 171.268 200.333,170.822 200.669,170.412 201.079 L 169.667 201.825 169.667 204.667 L 169.667 207.509 170.412 208.254 C 170.822 208.664,171.272 209.000,171.412 209.000 C 171.552 209.000,171.667 209.075,171.667 209.167 C 171.667 209.277,180.167 209.333,196.833 209.333 C 213.500 209.333,222.000 209.277,222.000 209.167 C 222.000 209.075,222.111 209.000,222.246 209.000 C 222.381 209.000,222.869 208.641,223.329 208.201 L 224.167 207.403 224.167 204.713 L 224.167 202.022 223.344 201.178 C 222.892 200.713,222.404 200.333,222.261 200.333 C 222.117 200.333,222.000 200.258,222.000 200.167 C 222.000 200.056,213.531 200.000,196.927 200.000 C 180.391 200.000,171.818 200.057,171.750 200.167 M180.833 213.333 C 180.833 213.608,180.908 213.833,181.000 213.833 C 181.092 213.833,181.167 213.991,181.167 214.183 C 181.167 214.376,181.392 214.743,181.667 215.000 C 181.942 215.257,182.167 215.535,182.167 215.618 C 182.167 215.795,183.245 217.000,183.403 217.000 C 183.512 217.000,183.845 217.284,184.914 218.292 C 185.230 218.590,185.604 218.833,185.744 218.833 C 185.885 218.833,186.000 218.894,186.000 218.969 C 186.000 219.140,187.284 219.833,187.599 219.833 C 187.728 219.833,187.833 219.908,187.833 220.000 C 187.833 220.092,187.983 220.167,188.167 220.167 C 188.350 220.167,188.500 220.242,188.500 220.333 C 188.500 220.425,188.650 220.500,188.833 220.500 C 189.017 220.500,189.167 220.575,189.167 220.667 C 189.167 220.758,189.392 220.833,189.667 220.833 C 189.942 220.833,190.167 220.908,190.167 221.000 C 190.167 221.092,190.308 221.167,190.481 221.167 C 190.654 221.167,191.010 221.279,191.273 221.416 C 191.535 221.553,191.956 221.665,192.208 221.666 C 192.460 221.666,192.667 221.742,192.667 221.833 C 192.667 221.940,194.167 222.000,196.833 222.000 C 199.500 222.000,201.000 221.940,201.000 221.833 C 201.000 221.742,201.286 221.667,201.635 221.667 C 201.984 221.667,202.415 221.557,202.593 221.422 C 202.771 221.287,203.123 221.175,203.375 221.172 C 203.627 221.169,203.833 221.092,203.833 221.000 C 203.833 220.908,203.983 220.833,204.167 220.833 C 204.350 220.833,204.500 220.758,204.500 220.667 C 204.500 220.575,204.725 220.500,205.000 220.500 C 205.275 220.500,205.500 220.425,205.500 220.333 C 205.500 220.242,205.612 220.167,205.750 220.167 C 205.887 220.167,206.000 220.092,206.000 220.000 C 206.000 219.908,206.150 219.833,206.333 219.833 C 206.517 219.833,206.667 219.758,206.667 219.667 C 206.667 219.575,206.817 219.500,207.000 219.500 C 207.183 219.500,207.333 219.425,207.333 219.333 C 207.333 219.242,207.448 219.167,207.589 219.167 C 207.729 219.167,208.107 218.904,208.428 218.583 C 208.749 218.262,209.075 218.000,209.153 218.000 C 209.374 218.000,211.500 215.883,211.500 215.663 C 211.500 215.555,211.725 215.257,212.000 215.000 C 212.275 214.743,212.500 214.376,212.500 214.183 C 212.500 213.983,212.607 213.833,212.750 213.833 C 213.012 213.833,213.070 213.544,212.899 213.097 C 212.808 212.859,211.235 212.833,196.816 212.833 L 180.833 212.833 180.833 213.333 " stroke="none" fill="#065271" fill-rule="evenodd"></path></g></svg>