<?xml version="1.0" encoding="UTF-8" standalone="no"?>
<svg
   xmlns:dc="http://purl.org/dc/elements/1.1/"
   xmlns:cc="http://creativecommons.org/ns#"
   xmlns:rdf="http://www.w3.org/1999/02/22-rdf-syntax-ns#"
   xmlns:svg="http://www.w3.org/2000/svg"
   xmlns="http://www.w3.org/2000/svg"
   xmlns:sodipodi="http://sodipodi.sourceforge.net/DTD/sodipodi-0.dtd"
   xmlns:inkscape="http://www.inkscape.org/namespaces/inkscape"
   id="svg"
   version="1.1"
   width="433.33301"
   height="505"
   style="display:block"
   inkscape:version="0.91 r13725"
   sodipodi:docname="logo-lamp22.svg"
   inkscape:export-filename="/media/apostolof/0E88958A889570C7/Workspaces/HTML/ArtemisWebsite/images/logo-lamp22.svg"
   inkscape:export-xdpi="500"
   inkscape:export-ydpi="500">
  <metadata
     id="metadata10">
    <rdf:RDF>
      <cc:Work
         rdf:about="">
        <dc:format>image/svg+xml</dc:format>
        <dc:type
           rdf:resource="http://purl.org/dc/dcmitype/StillImage" />
        <dc:title></dc:title>
      </cc:Work>
    </rdf:RDF>
  </metadata>
  <defs
     id="defs8" />
  <sodipodi:namedview
     pagecolor="#ffffff"
     bordercolor="#666666"
     borderopacity="1"
     objecttolerance="10"
     gridtolerance="10"
     guidetolerance="10"
     inkscape:pageopacity="0"
     inkscape:pageshadow="2"
     inkscape:window-width="1855"
     inkscape:window-height="1056"
     id="namedview6"
     showgrid="false"
     inkscape:zoom="1.5462068"
     inkscape:cx="85.25175"
     inkscape:cy="224.53116"
     inkscape:window-x="65"
     inkscape:window-y="24"
     inkscape:window-maximized="1"
     inkscape:current-layer="svg"
     fit-margin-top="150"
     fit-margin-left="150"
     fit-margin-right="150"
     fit-margin-bottom="150" />
  <g
     id="svgg"
     transform="translate(19.833,133)">
    <path
       id="path0"
       d="m 196.134,65.011 c -1.248,0.2 -2.436,0.956 -4.024,2.562 -1.242,1.255 -1.518,1.461 -1.762,1.308 -1.253,-0.782 -2.402,-1.243 -3.739,-1.499 -0.962,-0.185 -3.17,0.771 -4.412,1.91 -0.916,0.839 -0.754,0.819 -1.969,0.25 -2.844,-1.333 -6.674,0.289 -9.241,3.914 -0.316,0.447 -0.635,0.712 -0.868,0.722 -0.203,0.008 -2.657,0.049 -5.452,0.089 l -5.084,0.075 -1.93,-1.546 c -1.061,-0.85 -3.01,-2.427 -4.33,-3.504 l -2.401,-1.959 -1.368,0 c -1.85,0 -1.837,0.102 0.223,1.787 4.064,3.324 5.796,4.806 5.801,4.963 0.003,0.097 -0.659,0.186 -1.578,0.212 L 152.417,74.34 151,73.246 c -0.779,-0.601 -1.792,-1.39 -2.25,-1.752 -0.807,-0.638 -0.875,-0.659 -2.115,-0.66 -1.73,-0.001 -1.723,0.106 0.11,1.696 1.97,1.709 1.983,1.803 0.255,1.803 l -1.333,0 0,1.58 c 0,1.807 -0.09,1.715 1.75,1.794 l 1,0.043 -0.901,0.833 c -0.495,0.459 -1.245,1.147 -1.665,1.53 -0.935,0.85 -0.864,0.937 0.777,0.956 l 1.295,0.014 1.305,-1.083 c 0.717,-0.596 1.683,-1.365 2.147,-1.708 l 0.843,-0.625 1.732,0 1.732,0 -0.284,0.375 c -0.156,0.206 -1.803,1.601 -3.661,3.1 -4.764,3.844 -4.663,3.699 -2.602,3.726 l 1.341,0.017 2.135,-1.734 c 1.174,-0.954 3.186,-2.577 4.47,-3.607 l 2.336,-1.873 4.022,-0.002 c 4.545,-0.003 4.255,-0.09 4.714,1.414 0.112,0.367 0.27,0.817 0.351,1 0.081,0.184 0.72,2.059 1.42,4.167 0.699,2.108 1.331,3.983 1.404,4.167 0.073,0.183 0.3,0.896 0.505,1.583 0.205,0.688 0.431,1.4 0.501,1.583 0.07,0.184 0.22,0.671 0.333,1.084 0.113,0.412 0.263,0.937 0.335,1.166 0.783,2.508 2.624,9.184 3.011,10.917 0.082,0.367 0.228,0.967 0.326,1.333 0.306,1.157 0.803,3.415 1.32,6 0.275,1.375 0.584,2.913 0.687,3.417 0.102,0.504 0.258,1.292 0.346,1.75 0.088,0.458 0.231,1.153 0.317,1.544 0.087,0.391 0.158,0.924 0.158,1.184 0,0.26 0.066,0.69 0.148,0.955 0.082,0.266 0.234,1.121 0.339,1.9 0.104,0.779 0.258,1.792 0.342,2.25 0.159,0.875 0.56,3.572 0.928,6.25 0.12,0.871 0.375,2.709 0.568,4.084 0.999,7.147 1.541,13.186 1.833,20.416 0.284,7.051 0.307,8.584 0.172,11.54 -0.092,2.009 -0.076,2.944 0.05,3.098 0.232,0.283 -0.112,0.523 -0.755,0.526 -0.577,0.004 -0.595,0.293 -0.031,0.507 1.053,0.401 6.239,0.142 6.239,-0.311 0,-0.082 -0.306,-0.19 -0.68,-0.24 -0.826,-0.111 -0.965,-0.225 -0.606,-0.496 0.305,-0.232 0.141,-10.855 -0.208,-13.457 -0.092,-0.687 -0.286,-3.35 -0.43,-5.917 -0.145,-2.566 -0.336,-5.341 -0.425,-6.166 -0.089,-0.825 -0.313,-2.888 -0.497,-4.584 -0.185,-1.696 -0.361,-3.308 -0.391,-3.583 -0.03,-0.275 -0.211,-1.693 -0.403,-3.151 -0.191,-1.457 -0.309,-2.714 -0.261,-2.791 0.048,-0.078 5.564,-0.141 12.258,-0.141 l 12.171,0 -0.079,1.041 c -0.043,0.573 -0.235,2.279 -0.425,3.792 -0.19,1.512 -0.419,3.5 -0.509,4.417 -0.09,0.916 -0.324,3.204 -0.521,5.083 -0.197,1.879 -0.387,3.867 -0.421,4.417 -0.035,0.55 -0.177,2.687 -0.316,4.75 -0.396,5.856 -0.642,16.198 -0.389,16.355 0.299,0.184 0.106,0.304 -0.72,0.448 l -0.731,0.128 0.447,0.296 c 0.607,0.402 5.548,0.351 5.804,-0.061 0.124,-0.198 0.029,-0.28 -0.464,-0.397 -0.76,-0.18 -0.794,-0.207 -0.584,-0.474 0.103,-0.13 0.207,-2.977 0.268,-7.379 0.055,-3.941 0.175,-8.066 0.266,-9.166 0.091,-1.1 0.249,-3.2 0.351,-4.667 0.264,-3.808 0.756,-8.353 1.658,-15.333 0.083,-0.642 0.233,-1.805 0.332,-2.584 0.1,-0.779 0.254,-1.866 0.342,-2.416 0.089,-0.55 0.198,-1.263 0.243,-1.584 0.169,-1.203 0.584,-3.973 0.837,-5.583 0.366,-2.333 1.314,-7.539 1.585,-8.708 0.091,-0.39 0.233,-1.027 0.316,-1.417 0.686,-3.202 2.461,-10.389 3.345,-13.542 0.077,-0.275 0.296,-1.074 0.487,-1.776 0.729,-2.687 2.621,-8.797 3.63,-11.724 0.316,-0.916 0.713,-2.079 0.881,-2.583 0.518,-1.55 1.309,-3.513 1.585,-3.934 l 0.262,-0.399 5.236,0 c 5.897,0 5.721,-0.045 4.871,1.235 -1.21,1.823 -2.282,4.46 -2.282,5.616 0,0.643 0.105,0.617 1.353,-0.328 3.267,-2.473 8.115,-4.949 13.711,-7.002 2.619,-0.961 2.634,-1.006 0.603,-1.756 -7.005,-2.59 -10.729,-4.435 -14.083,-6.98 l -1.5,-1.138 -0.052,0.598 c -0.09,1.028 0.716,3.14 2.126,5.573 0.497,0.858 0.557,0.848 -5.543,0.847 -6.849,-10e-4 -6.545,0.062 -8.041,-1.668 -2.732,-3.161 -6.03,-4.355 -8.62,-3.122 -1.189,0.566 -0.992,0.593 -2.01,-0.275 -2.636,-2.244 -4.666,-2.428 -7.563,-0.683 l -0.961,0.579 -1.251,-1.233 c -2.513,-2.475 -4.464,-3.304 -6.868,-2.919 m 2.946,4.035 c 0.879,0.441 2.753,2.254 2.753,2.663 0,0.178 -0.148,0.531 -0.329,0.785 -5.025,7.057 -4.158,18.684 1.391,18.671 1.891,-0.004 4.901,-3.035 5.131,-5.165 0.014,-0.138 0.082,0.237 0.15,0.833 0.467,4.099 1.939,5.985 4.715,6.044 5.588,0.12 7.106,-9.331 3.039,-18.913 -0.354,-0.834 -0.345,-0.867 0.29,-1.097 2.699,-0.976 7.412,3.424 6.351,5.93 -0.437,1.032 -2.742,7.8 -3.788,11.12 -0.39,1.236 -1.563,5.278 -2.71,9.333 -0.591,2.092 -1.546,5.941 -2.149,8.667 -0.224,1.008 -0.569,2.545 -0.769,3.416 -0.199,0.871 -0.429,1.884 -0.51,2.25 -0.359,1.623 -1.652,8.644 -2.067,11.23 -0.138,0.86 -0.292,1.629 -0.341,1.708 -0.05,0.081 -5.83,0.146 -12.974,0.146 l -12.884,0 -0.196,-1.042 c -0.108,-0.573 -0.304,-1.778 -0.435,-2.679 -0.253,-1.724 -0.888,-5.067 -1.415,-7.446 -0.173,-0.779 -0.399,-1.942 -0.503,-2.583 -0.105,-0.642 -0.233,-1.279 -0.285,-1.417 -0.053,-0.138 -0.27,-1.038 -0.482,-2 -0.783,-3.548 -2.718,-11.188 -3.397,-13.417 -0.196,-0.641 -0.534,-1.804 -0.751,-2.583 -0.786,-2.818 -3.744,-11.789 -4.506,-13.667 -0.609,-1.499 -0.561,-1.977 0.34,-3.423 1.701,-2.729 4.47,-4.328 6.065,-3.503 0.587,0.303 0.589,0.451 0.019,1.593 -0.272,0.546 -0.955,2.661 -1.577,4.884 -1.268,4.535 -0.278,10.499 2.063,12.426 3.294,2.713 7.482,-0.024 7.556,-4.938 0.006,-0.395 0.074,-0.757 0.151,-0.805 0.078,-0.048 0.141,0.057 0.141,0.233 0,0.52 1.028,2.361 1.795,3.215 2.85,3.172 6.86,1.394 7.738,-3.432 0.286,-1.572 0.341,-3.482 0.134,-4.663 -0.26,-1.488 -0.94,-4.094 -1.276,-4.891 -0.506,-1.199 -1.311,-2.794 -1.93,-3.824 -0.797,-1.325 -0.804,-1.274 0.324,-2.427 1.716,-1.754 3.32,-2.139 5.128,-1.232 m -11.786,2.095 c 1.742,0.852 1.723,0.788 0.901,3.045 -0.829,2.273 -1.37,4.289 -1.413,5.264 -0.034,0.75 -0.33,0.896 -0.414,0.204 -0.105,-0.857 -1.279,-4.139 -1.987,-5.554 -0.736,-1.47 -0.74,-1.486 -0.437,-1.892 0.698,-0.933 2.469,-1.497 3.35,-1.067 m 22.693,0.245 c 1.467,0.75 1.492,0.921 0.464,3.12 -0.492,1.051 -1.066,2.473 -1.276,3.161 -0.21,0.687 -0.444,1.4 -0.521,1.583 -0.077,0.183 -0.171,0.521 -0.208,0.75 -0.04,0.251 -0.076,0.14 -0.09,-0.282 -0.012,-0.384 -0.088,-0.739 -0.167,-0.788 -0.08,-0.049 -0.193,-0.454 -0.253,-0.9 -0.118,-0.893 -1.01,-3.651 -1.593,-4.928 -0.361,-0.79 -0.363,-0.823 -0.066,-1.119 0.969,-0.967 2.504,-1.214 3.71,-0.597 m -17.604,5.364 c 2.018,4.04 2.2,9.718 0.338,10.566 -2.789,1.271 -4.17,-4.83 -2.362,-10.428 0.823,-2.546 0.821,-2.546 2.024,-0.138 m 12.355,0.468 c 1.323,3.976 0.9,8.697 -0.888,9.901 -3.434,2.312 -3.91,-6.44 -0.621,-11.43 l 0.48,-0.727 0.298,0.477 c 0.163,0.263 0.492,1.063 0.731,1.779 m -21.723,1.288 c 0.803,2.445 1.224,7.004 0.84,9.077 -0.553,2.981 -3.661,1.972 -4.11,-1.333 -0.012,-0.092 -0.08,-0.588 -0.15,-1.102 -0.198,-1.453 0.532,-5.902 1.24,-7.565 0.079,-0.183 0.31,-0.714 0.515,-1.179 l 0.372,-0.847 0.474,0.948 c 0.26,0.522 0.629,1.422 0.819,2.001 m 30.813,-1.712 c 2.1,4.935 2.105,10.749 0.011,12.164 -1.212,0.819 -2.363,0.281 -2.682,-1.253 -0.405,-1.946 -0.014,-6.37 0.8,-9.038 0.301,-0.989 1.241,-3.191 1.326,-3.107 0.019,0.02 0.264,0.575 0.545,1.234"
       inkscape:connector-curvature="0"
       style="fill:#ffffff;fill-rule:evenodd;stroke:none" />
    <path
       id="path1"
       d="m 188.583,17.167 c -0.056,0.091 -0.769,0.166 -1.583,0.166 -0.814,0 -1.527,0.075 -1.583,0.167 -0.057,0.092 -0.474,0.167 -0.927,0.167 -0.453,0 -0.823,0.075 -0.823,0.166 0,0.093 -0.441,0.167 -0.99,0.167 -0.545,0 -1.037,0.075 -1.094,0.167 -0.056,0.091 -0.398,0.166 -0.76,0.166 -0.361,0 -0.656,0.075 -0.656,0.167 0,0.092 -0.333,0.167 -0.74,0.167 -0.408,0 -0.787,0.075 -0.844,0.166 -0.056,0.092 -0.394,0.167 -0.75,0.167 -0.356,0 -0.693,0.075 -0.75,0.167 -0.056,0.091 -0.281,0.166 -0.5,0.166 -0.218,0 -0.443,0.075 -0.5,0.167 -0.056,0.092 -0.328,0.167 -0.602,0.167 -0.275,0 -0.836,0.187 -1.247,0.416 -0.41,0.23 -1.006,0.417 -1.323,0.417 -0.318,0 -0.578,0.075 -0.578,0.167 0,0.091 -0.15,0.166 -0.333,0.166 -0.183,0 -0.333,0.075 -0.333,0.167 0,0.092 -0.3,0.167 -0.667,0.167 -0.367,0 -0.667,0.075 -0.667,0.166 0,0.092 -0.15,0.167 -0.333,0.167 -0.183,0 -0.333,0.075 -0.333,0.167 0,0.091 -0.221,0.166 -0.49,0.166 -0.27,0 -0.537,0.075 -0.594,0.167 -0.056,0.092 -0.248,0.167 -0.426,0.167 -0.178,0 -0.324,0.075 -0.324,0.166 0,0.092 -0.225,0.167 -0.5,0.167 -0.275,0 -0.5,0.075 -0.5,0.167 0,0.091 -0.15,0.166 -0.333,0.166 -0.183,0 -0.333,0.075 -0.333,0.167 0,0.092 -0.15,0.167 -0.334,0.167 -0.183,0 -0.333,0.075 -0.333,0.166 0,0.092 -0.152,0.167 -0.339,0.167 -0.186,0 -0.381,0.113 -0.434,0.25 -0.053,0.137 -0.238,0.25 -0.411,0.25 -0.174,0 -0.316,0.075 -0.316,0.167 0,0.091 -0.15,0.166 -0.333,0.166 -0.184,0 -0.334,0.075 -0.334,0.167 0,0.092 -0.15,0.167 -0.333,0.167 -0.183,0 -0.333,0.075 -0.333,0.166 0,0.092 -0.15,0.167 -0.334,0.167 -0.183,0 -0.333,0.075 -0.333,0.167 0,0.091 -0.187,0.166 -0.417,0.166 -0.229,0 -0.416,0.075 -0.416,0.167 0,0.092 -0.15,0.167 -0.334,0.167 -0.183,0 -0.333,0.075 -0.333,0.166 0,0.092 -0.133,0.167 -0.297,0.167 -0.163,0 -0.404,0.15 -0.536,0.333 -0.132,0.184 -0.374,0.334 -0.537,0.334 -0.163,0 -0.297,0.075 -0.297,0.166 0,0.092 -0.115,0.167 -0.255,0.167 -0.14,0 -0.298,0.113 -0.351,0.25 -0.053,0.137 -0.2,0.25 -0.328,0.25 -0.128,0 -0.232,0.075 -0.232,0.167 0,0.091 -0.15,0.166 -0.334,0.166 -0.183,0 -0.333,0.075 -0.333,0.167 0,0.092 -0.094,0.167 -0.208,0.167 -0.115,0 -0.427,0.187 -0.693,0.417 -0.266,0.229 -0.544,0.416 -0.617,0.416 -0.074,0 -0.321,0.188 -0.55,0.417 -0.229,0.229 -0.514,0.418 -0.633,0.419 -0.255,0.004 -1.111,0.666 -1.99,1.539 -0.346,0.344 -0.706,0.625 -0.8,0.625 -0.176,0 -0.611,0.324 -1.238,0.92 -0.195,0.186 -0.617,0.521 -0.938,0.745 -0.672,0.47 -1,0.768 -1,0.912 0,0.126 -1.122,1.256 -1.247,1.256 -0.12,0 -2.586,2.467 -2.586,2.587 0,0.051 -0.319,0.418 -0.708,0.816 -0.39,0.398 -1.009,1.075 -1.375,1.505 -0.367,0.43 -0.761,0.884 -0.875,1.008 -0.115,0.125 -0.209,0.296 -0.209,0.381 0,0.085 -0.225,0.389 -0.5,0.677 -0.275,0.288 -0.5,0.604 -0.5,0.702 0,0.099 -0.224,0.368 -0.498,0.599 -0.275,0.231 -0.621,0.676 -0.769,0.989 -0.149,0.313 -0.337,0.57 -0.418,0.57 -0.082,0 -0.148,0.133 -0.148,0.296 0,0.163 -0.15,0.405 -0.333,0.537 -0.184,0.132 -0.334,0.374 -0.334,0.537 0,0.163 -0.075,0.296 -0.166,0.296 -0.092,0 -0.167,0.099 -0.167,0.219 0,0.12 -0.15,0.379 -0.333,0.576 -0.184,0.197 -0.334,0.474 -0.334,0.615 0,0.141 -0.075,0.257 -0.166,0.257 -0.092,0 -0.167,0.188 -0.167,0.417 0,0.237 -0.096,0.416 -0.223,0.416 -0.213,0 -0.61,0.662 -0.61,1.015 0,0.091 -0.15,0.327 -0.334,0.524 -0.183,0.197 -0.333,0.531 -0.333,0.743 0,0.212 -0.075,0.385 -0.167,0.385 -0.091,0 -0.166,0.188 -0.166,0.417 0,0.229 -0.075,0.416 -0.167,0.416 -0.092,0 -0.167,0.15 -0.167,0.334 0,0.183 -0.075,0.333 -0.166,0.333 -0.092,0 -0.167,0.15 -0.167,0.333 0,0.184 -0.075,0.334 -0.167,0.334 -0.091,0 -0.166,0.225 -0.166,0.5 0,0.275 -0.075,0.5 -0.167,0.5 -0.092,0 -0.167,0.187 -0.167,0.416 0,0.23 -0.075,0.417 -0.166,0.417 -0.092,0 -0.167,0.3 -0.167,0.667 0,0.481 -0.069,0.666 -0.25,0.666 -0.138,0 -0.25,0.146 -0.25,0.324 0,0.178 -0.075,0.37 -0.167,0.426 -0.091,0.057 -0.166,0.349 -0.166,0.649 0,0.3 -0.052,0.597 -0.115,0.66 -0.199,0.2 -0.547,1.341 -0.549,1.806 -0.002,0.247 -0.078,0.495 -0.17,0.552 -0.091,0.057 -0.166,0.394 -0.166,0.75 0,0.356 -0.075,0.693 -0.167,0.75 -0.092,0.057 -0.167,0.394 -0.167,0.75 0,0.356 -0.075,0.693 -0.166,0.75 -0.092,0.057 -0.167,0.619 -0.167,1.25 0,0.631 -0.075,1.193 -0.167,1.25 -0.106,0.066 -0.166,2.443 -0.166,6.583 0,4.141 0.06,6.518 0.166,6.584 0.092,0.056 0.167,0.656 0.167,1.333 0,0.677 0.075,1.277 0.167,1.333 0.091,0.057 0.166,0.399 0.166,0.76 0,0.361 0.068,0.657 0.15,0.657 0.083,0 0.193,0.319 0.245,0.708 0.231,1.73 0.316,2.125 0.456,2.125 0.082,0 0.149,0.225 0.149,0.5 0,0.275 0.075,0.5 0.167,0.5 0.092,0 0.167,0.2 0.167,0.444 0,0.504 0.494,1.723 0.698,1.723 0.074,0 0.135,0.225 0.135,0.5 0,0.275 0.075,0.5 0.167,0.5 0.091,0 0.166,0.225 0.166,0.5 0,0.275 0.075,0.5 0.167,0.5 0.092,0 0.167,0.211 0.167,0.469 0,0.257 0.15,0.629 0.333,0.826 0.183,0.197 0.333,0.548 0.333,0.781 0,0.233 0.075,0.424 0.167,0.424 0.092,0 0.167,0.15 0.167,0.333 0,0.184 0.058,0.334 0.13,0.334 0.072,0 0.23,0.337 0.352,0.75 0.121,0.412 0.288,0.75 0.369,0.75 0.082,0 0.149,0.139 0.149,0.309 0,0.17 0.187,0.511 0.416,0.758 0.23,0.248 0.417,0.558 0.417,0.691 0,0.133 0.075,0.242 0.167,0.242 0.091,0 0.166,0.15 0.166,0.333 0,0.183 0.075,0.333 0.167,0.333 0.092,0 0.167,0.15 0.167,0.334 0,0.183 0.075,0.333 0.166,0.333 0.092,0 0.167,0.112 0.167,0.25 0,0.138 0.075,0.25 0.167,0.25 0.091,0 0.166,0.133 0.166,0.297 0,0.163 0.15,0.404 0.334,0.536 0.183,0.132 0.333,0.357 0.333,0.5 0,0.143 0.15,0.368 0.333,0.5 0.184,0.132 0.334,0.374 0.334,0.537 0,0.163 0.075,0.297 0.166,0.297 0.092,0 0.168,0.131 0.17,0.291 0.001,0.161 0.189,0.469 0.417,0.684 0.227,0.216 0.413,0.498 0.413,0.625 0,0.128 0.063,0.233 0.139,0.233 0.076,0 0.244,0.206 0.374,0.458 0.129,0.252 0.367,0.58 0.528,0.728 0.161,0.148 0.293,0.353 0.293,0.454 0,0.101 0.19,0.505 0.424,0.897 0.233,0.392 0.467,0.844 0.519,1.005 0.053,0.16 0.162,0.291 0.243,0.291 0.081,0 0.147,0.118 0.147,0.262 0,0.3 0.389,0.738 0.655,0.738 0.098,0 0.178,0.15 0.178,0.334 0,0.183 0.075,0.333 0.167,0.333 0.092,0 0.167,0.105 0.167,0.234 0,0.316 0.693,1.599 0.864,1.599 0.075,0 0.136,0.134 0.136,0.297 0,0.163 0.15,0.405 0.333,0.537 0.183,0.132 0.333,0.373 0.333,0.536 0,0.164 0.075,0.297 0.167,0.297 0.092,0 0.167,0.11 0.167,0.245 0,0.274 0.575,1.364 0.933,1.768 0.128,0.145 0.233,0.372 0.233,0.505 0,0.133 0.15,0.35 0.334,0.482 0.183,0.132 0.333,0.374 0.333,0.537 0,0.163 0.075,0.296 0.167,0.296 0.091,0 0.166,0.146 0.166,0.324 0,0.178 0.075,0.37 0.167,0.426 0.092,0.057 0.167,0.243 0.167,0.413 0,0.17 0.056,0.335 0.125,0.365 0.156,0.07 0.697,0.957 0.821,1.347 0.051,0.161 0.159,0.292 0.24,0.292 0.081,0 0.147,0.109 0.147,0.242 0,0.133 0.229,0.639 0.509,1.125 0.28,0.486 0.551,1.014 0.603,1.175 0.051,0.16 0.16,0.291 0.241,0.291 0.081,0 0.147,0.111 0.147,0.245 0,0.135 0.15,0.512 0.333,0.839 0.184,0.326 0.334,0.703 0.334,0.838 0,0.135 0.075,0.245 0.166,0.245 0.092,0 0.167,0.15 0.167,0.333 0,0.184 0.061,0.334 0.137,0.334 0.075,0 0.238,0.375 0.363,0.833 0.125,0.458 0.288,0.833 0.363,0.833 0.076,0 0.137,0.15 0.137,0.334 0,0.183 0.075,0.333 0.167,0.333 0.091,0 0.166,0.101 0.166,0.224 0,0.335 0.501,1.276 0.679,1.276 0.085,0 0.155,0.225 0.155,0.5 0,0.275 0.075,0.5 0.166,0.5 0.092,0 0.167,0.15 0.167,0.333 0,0.184 0.075,0.334 0.167,0.334 0.091,0 0.166,0.185 0.166,0.411 0,0.227 0.15,0.679 0.334,1.005 0.183,0.327 0.333,0.779 0.333,1.005 0,0.227 0.075,0.412 0.167,0.412 0.091,0 0.166,0.15 0.166,0.333 0,0.184 0.075,0.334 0.167,0.334 0.092,0 0.167,0.22 0.167,0.49 0,0.269 0.075,0.536 0.166,0.593 0.092,0.057 0.167,0.249 0.167,0.427 0,0.177 0.075,0.323 0.167,0.323 0.091,0 0.166,0.225 0.166,0.5 0,0.275 0.075,0.5 0.167,0.5 0.092,0 0.167,0.183 0.167,0.407 0,0.224 0.066,0.448 0.147,0.498 0.082,0.05 0.198,0.355 0.258,0.676 0.06,0.322 0.181,0.586 0.269,0.586 0.087,0 0.159,0.225 0.159,0.5 0,0.275 0.075,0.5 0.167,0.5 0.091,0 0.166,0.3 0.166,0.666 0,0.367 0.075,0.667 0.167,0.667 0.092,0 0.167,0.188 0.167,0.417 0,0.229 0.075,0.416 0.166,0.416 0.092,0 0.167,0.333 0.167,0.74 0,0.408 0.075,0.787 0.167,0.844 0.091,0.056 0.166,0.248 0.166,0.426 0,0.178 0.075,0.324 0.167,0.324 0.092,0 0.167,0.37 0.167,0.823 0,0.453 0.075,0.87 0.166,0.927 0.092,0.056 0.167,0.323 0.167,0.593 0,0.269 0.068,0.49 0.151,0.49 0.083,0 0.191,0.394 0.24,0.875 0.137,1.343 0.298,2.119 0.461,2.22 0.081,0.05 0.148,0.457 0.148,0.903 0,0.499 0.096,0.908 0.25,1.062 0.14,0.14 0.25,0.547 0.25,0.928 0,0.373 0.075,0.679 0.167,0.679 0.092,0 0.166,0.444 0.166,1 0,0.555 0.074,1 0.167,1 0.092,0 0.167,0.262 0.167,0.583 0,0.321 0.075,0.583 0.166,0.583 0.092,0 0.167,0.333 0.167,0.74 0,0.408 0.075,0.787 0.167,0.844 0.091,0.056 0.166,0.248 0.166,0.426 0,0.178 0.075,0.324 0.167,0.324 0.092,0 0.167,0.22 0.167,0.49 0,0.269 0.075,0.536 0.166,0.593 0.092,0.057 0.167,0.249 0.167,0.427 0,0.177 0.066,0.323 0.146,0.323 0.08,0 0.189,0.216 0.242,0.48 0.052,0.264 0.212,0.596 0.354,0.738 0.142,0.142 0.258,0.376 0.258,0.52 0,0.144 0.112,0.262 0.25,0.262 0.137,0 0.25,0.133 0.25,0.297 0,0.376 2.043,2.536 2.4,2.536 0.147,0 0.267,0.075 0.267,0.167 0,0.092 0.15,0.167 0.333,0.167 0.183,0 0.333,0.075 0.333,0.166 0,0.092 0.188,0.167 0.417,0.167 0.229,0 0.417,0.075 0.417,0.167 0,0.091 0.143,0.166 0.319,0.166 0.176,0 0.346,0.079 0.378,0.176 0.08,0.238 1.173,0.518 2.386,0.61 0.55,0.042 1.071,0.144 1.158,0.228 0.207,0.199 9.267,0.195 9.581,-0.004 0.177,-0.111 0.192,-0.209 0.058,-0.372 -0.126,-0.154 -0.142,-1.089 -0.05,-3.098 0.135,-2.956 0.112,-4.489 -0.172,-11.54 -0.292,-7.23 -0.834,-13.269 -1.833,-20.416 -0.193,-1.375 -0.448,-3.213 -0.568,-4.084 -0.368,-2.678 -0.769,-5.375 -0.928,-6.25 -0.084,-0.458 -0.238,-1.471 -0.342,-2.25 -0.105,-0.779 -0.257,-1.634 -0.339,-1.9 -0.082,-0.265 -0.148,-0.695 -0.148,-0.955 0,-0.26 -0.072,-0.793 -0.16,-1.184 -0.088,-0.391 -0.245,-1.161 -0.35,-1.711 -0.104,-0.55 -0.259,-1.337 -0.345,-1.75 -0.086,-0.412 -0.381,-1.875 -0.655,-3.25 -0.512,-2.573 -1.009,-4.83 -1.318,-6 -0.098,-0.366 -0.244,-0.966 -0.326,-1.333 -0.387,-1.733 -2.228,-8.409 -3.011,-10.917 -0.072,-0.229 -0.222,-0.754 -0.335,-1.166 -0.113,-0.413 -0.263,-0.9 -0.333,-1.084 -0.07,-0.183 -0.296,-0.895 -0.501,-1.583 -0.205,-0.687 -0.432,-1.4 -0.505,-1.583 -0.073,-0.184 -0.705,-2.059 -1.404,-4.167 -0.7,-2.108 -1.339,-3.983 -1.42,-4.167 -0.081,-0.183 -0.239,-0.633 -0.351,-1 -0.459,-1.504 -0.169,-1.417 -4.714,-1.414 l -4.022,0.002 -2.336,1.873 c -1.284,1.03 -3.296,2.653 -4.47,3.607 l -2.135,1.734 -1.341,-0.017 c -2.061,-0.027 -2.162,0.118 2.602,-3.726 1.858,-1.499 3.505,-2.894 3.661,-3.1 l 0.284,-0.375 -1.732,0 -1.732,0 -0.843,0.625 c -0.464,0.343 -1.43,1.112 -2.147,1.708 l -1.305,1.083 -1.295,-0.014 c -1.641,-0.019 -1.712,-0.106 -0.777,-0.956 0.42,-0.383 1.17,-1.071 1.665,-1.53 l 0.901,-0.833 -1,-0.043 c -1.84,-0.079 -1.75,0.013 -1.75,-1.794 l 0,-1.58 1.333,0 c 1.728,0 1.715,-0.094 -0.255,-1.803 -1.833,-1.59 -1.84,-1.697 -0.11,-1.696 1.24,10e-4 1.308,0.022 2.115,0.66 0.458,0.362 1.471,1.151 2.25,1.752 l 1.417,1.094 1.583,-0.045 c 0.919,-0.026 1.581,-0.115 1.578,-0.212 -0.005,-0.157 -1.737,-1.639 -5.801,-4.963 -2.06,-1.685 -2.073,-1.787 -0.223,-1.787 l 1.368,0 2.401,1.959 c 1.32,1.077 3.269,2.654 4.33,3.504 l 1.93,1.546 5.084,-0.075 c 2.795,-0.04 5.249,-0.081 5.452,-0.089 0.233,-0.01 0.552,-0.275 0.868,-0.722 2.567,-3.625 6.397,-5.247 9.241,-3.914 1.215,0.569 1.053,0.589 1.969,-0.25 1.242,-1.139 3.45,-2.095 4.412,-1.91 1.337,0.256 2.486,0.717 3.739,1.499 0.244,0.153 0.521,-0.054 1.771,-1.323 3.649,-3.706 6.823,-3.595 10.883,0.379 l 1.251,1.226 0.961,-0.579 c 2.897,-1.745 4.927,-1.561 7.563,0.683 1.018,0.868 0.821,0.841 2.01,0.275 2.59,-1.233 5.888,-0.039 8.62,3.122 1.496,1.73 1.192,1.667 8.041,1.668 6.1,0.001 6.04,0.011 5.543,-0.847 -1.41,-2.433 -2.216,-4.545 -2.126,-5.573 l 0.052,-0.598 1.5,1.138 c 3.354,2.545 7.078,4.39 14.083,6.98 2.031,0.75 2.016,0.795 -0.603,1.756 -5.596,2.053 -10.444,4.529 -13.711,7.002 -1.248,0.945 -1.353,0.971 -1.353,0.328 0,-1.156 1.072,-3.793 2.282,-5.616 0.85,-1.28 1.026,-1.235 -4.871,-1.235 l -5.236,0 -0.262,0.399 c -0.276,0.421 -1.067,2.384 -1.585,3.934 -0.168,0.504 -0.565,1.667 -0.881,2.583 -1.009,2.927 -2.901,9.037 -3.63,11.724 -0.191,0.702 -0.41,1.501 -0.487,1.776 -0.887,3.165 -2.73,10.627 -3.333,13.5 -0.077,0.367 -0.219,1.004 -0.316,1.417 -0.277,1.182 -1.217,6.332 -1.597,8.75 -0.253,1.61 -0.668,4.38 -0.837,5.583 -0.045,0.321 -0.154,1.034 -0.243,1.584 -0.088,0.55 -0.242,1.637 -0.342,2.416 -0.099,0.779 -0.249,1.942 -0.332,2.584 -0.902,6.98 -1.394,11.525 -1.658,15.333 -0.102,1.467 -0.26,3.567 -0.351,4.667 -0.091,1.1 -0.211,5.225 -0.266,9.166 -0.061,4.402 -0.165,7.249 -0.268,7.379 -0.092,0.117 -0.113,0.267 -0.047,0.334 0.203,0.203 8.949,0.249 9.15,0.048 0.097,-0.098 0.556,-0.181 1.019,-0.185 1.016,-0.009 2.467,-0.368 2.555,-0.634 0.035,-0.105 0.241,-0.192 0.457,-0.192 0.216,0 0.439,-0.075 0.496,-0.166 0.057,-0.092 0.27,-0.167 0.473,-0.167 0.204,0 0.478,-0.15 0.61,-0.333 0.132,-0.184 0.342,-0.334 0.467,-0.334 0.124,0 0.514,-0.3 0.867,-0.666 0.352,-0.367 0.708,-0.667 0.792,-0.667 0.083,0 0.252,-0.187 0.374,-0.417 0.123,-0.229 0.286,-0.416 0.362,-0.416 0.076,0 0.138,-0.15 0.138,-0.334 0,-0.183 0.075,-0.333 0.167,-0.333 0.092,0 0.167,-0.116 0.167,-0.257 0,-0.141 0.15,-0.418 0.333,-0.615 0.183,-0.197 0.333,-0.531 0.333,-0.743 0,-0.212 0.075,-0.385 0.167,-0.385 0.092,0 0.167,-0.146 0.167,-0.323 0,-0.178 0.075,-0.37 0.166,-0.427 0.092,-0.057 0.167,-0.324 0.167,-0.593 0,-0.27 0.075,-0.49 0.167,-0.49 0.091,0 0.166,-0.146 0.166,-0.324 0,-0.178 0.075,-0.37 0.167,-0.426 0.092,-0.057 0.167,-0.43 0.167,-0.83 0,-0.399 0.079,-0.752 0.175,-0.784 0.218,-0.073 0.505,-1.117 0.61,-2.22 0.043,-0.458 0.147,-0.904 0.23,-0.991 0.083,-0.087 0.151,-0.444 0.151,-0.792 0,-0.348 0.075,-0.633 0.167,-0.633 0.093,0 0.167,-0.445 0.167,-1 0,-0.55 0.067,-1 0.149,-1 0.151,0 0.291,-0.703 0.457,-2.292 0.05,-0.481 0.159,-0.875 0.242,-0.875 0.084,0 0.152,-0.225 0.152,-0.5 0,-0.275 0.075,-0.5 0.166,-0.5 0.092,0 0.167,-0.413 0.167,-0.917 0,-0.504 0.075,-0.916 0.167,-0.916 0.091,0 0.166,-0.146 0.166,-0.324 0,-0.178 0.075,-0.37 0.167,-0.426 0.092,-0.057 0.167,-0.43 0.167,-0.83 0,-0.399 0.056,-0.751 0.125,-0.781 0.213,-0.095 0.708,-1.296 0.708,-1.718 0,-0.221 0.075,-0.448 0.167,-0.505 0.091,-0.056 0.166,-0.281 0.166,-0.5 0,-0.218 0.075,-0.443 0.167,-0.5 0.092,-0.056 0.167,-0.323 0.167,-0.593 0,-0.269 0.075,-0.49 0.166,-0.49 0.092,0 0.167,-0.225 0.167,-0.5 0,-0.275 0.075,-0.5 0.167,-0.5 0.091,0 0.166,-0.225 0.166,-0.5 0,-0.275 0.075,-0.5 0.167,-0.5 0.092,0 0.167,-0.146 0.167,-0.323 0,-0.178 0.075,-0.37 0.166,-0.427 0.092,-0.057 0.167,-0.324 0.167,-0.593 0,-0.27 0.075,-0.49 0.167,-0.49 0.091,0 0.166,-0.15 0.166,-0.334 0,-0.183 0.075,-0.333 0.167,-0.333 0.092,0 0.167,-0.221 0.167,-0.49 0,-0.27 0.075,-0.537 0.166,-0.593 0.092,-0.057 0.167,-0.249 0.167,-0.427 0,-0.178 0.074,-0.323 0.163,-0.323 0.09,0 0.215,-0.207 0.278,-0.459 0.063,-0.252 0.252,-0.704 0.42,-1.005 0.168,-0.3 0.306,-0.694 0.306,-0.875 0,-0.18 0.075,-0.328 0.166,-0.328 0.092,0 0.167,-0.15 0.167,-0.333 0,-0.184 0.075,-0.334 0.167,-0.334 0.091,0 0.166,-0.187 0.166,-0.416 0,-0.229 0.075,-0.417 0.167,-0.417 0.092,0 0.167,-0.15 0.167,-0.333 0,-0.184 0.075,-0.334 0.166,-0.334 0.092,0 0.167,-0.187 0.167,-0.416 0,-0.229 0.075,-0.417 0.167,-0.417 0.091,0 0.166,-0.187 0.166,-0.417 0,-0.229 0.057,-0.417 0.125,-0.418 0.131,-0.001 0.542,-0.792 0.542,-1.043 0,-0.079 0.188,-0.39 0.417,-0.691 0.229,-0.3 0.416,-0.67 0.416,-0.822 0,-0.151 0.057,-0.276 0.125,-0.277 0.15,-0.002 0.542,-0.809 0.542,-1.115 0,-0.119 0.075,-0.217 0.167,-0.217 0.091,0 0.166,-0.146 0.166,-0.323 0,-0.178 0.075,-0.37 0.167,-0.427 0.092,-0.057 0.167,-0.249 0.167,-0.427 0,-0.177 0.075,-0.323 0.166,-0.323 0.092,0 0.167,-0.116 0.167,-0.257 0,-0.141 0.15,-0.418 0.333,-0.615 0.184,-0.197 0.334,-0.456 0.334,-0.576 0,-0.12 0.075,-0.219 0.166,-0.219 0.092,0 0.167,-0.145 0.167,-0.323 0,-0.178 0.075,-0.37 0.167,-0.427 0.091,-0.056 0.166,-0.248 0.166,-0.426 0,-0.178 0.078,-0.324 0.172,-0.324 0.095,0 0.222,-0.131 0.283,-0.291 0.062,-0.161 0.247,-0.437 0.412,-0.615 0.165,-0.178 0.3,-0.462 0.3,-0.632 0,-0.17 0.15,-0.47 0.333,-0.667 0.184,-0.197 0.334,-0.456 0.334,-0.576 0,-0.12 0.075,-0.219 0.166,-0.219 0.092,0 0.167,-0.187 0.167,-0.416 0,-0.229 0.075,-0.417 0.167,-0.417 0.091,0 0.166,-0.133 0.166,-0.297 0,-0.163 0.15,-0.404 0.334,-0.536 0.183,-0.132 0.333,-0.346 0.333,-0.476 0,-0.129 0.133,-0.357 0.295,-0.505 0.162,-0.148 0.443,-0.587 0.625,-0.976 0.181,-0.388 0.386,-0.707 0.455,-0.708 0.069,-10e-4 0.125,-0.135 0.125,-0.299 0,-0.163 0.15,-0.404 0.333,-0.536 0.184,-0.132 0.334,-0.34 0.334,-0.461 0,-0.121 0.15,-0.381 0.333,-0.578 0.183,-0.197 0.333,-0.456 0.333,-0.576 0,-0.12 0.075,-0.219 0.167,-0.219 0.092,0 0.167,-0.15 0.167,-0.333 0,-0.183 0.075,-0.333 0.166,-0.333 0.092,0 0.167,-0.171 0.167,-0.38 0,-0.209 0.15,-0.488 0.333,-0.62 0.184,-0.132 0.334,-0.333 0.334,-0.446 0,-0.112 0.099,-0.264 0.219,-0.338 0.328,-0.198 1.281,-1.653 1.281,-1.955 0,-0.144 0.075,-0.261 0.166,-0.261 0.092,0 0.167,-0.134 0.167,-0.297 0,-0.163 0.15,-0.405 0.333,-0.537 0.184,-0.132 0.334,-0.357 0.334,-0.5 0,-0.143 0.15,-0.368 0.333,-0.5 0.183,-0.132 0.333,-0.373 0.333,-0.536 0,-0.164 0.075,-0.297 0.167,-0.297 0.092,0 0.167,-0.112 0.167,-0.25 0,-0.138 0.063,-0.25 0.141,-0.25 0.078,0 0.277,-0.3 0.442,-0.667 0.165,-0.366 0.364,-0.666 0.442,-0.666 0.078,0 0.141,-0.116 0.141,-0.257 0,-0.142 0.15,-0.418 0.334,-0.615 0.183,-0.197 0.333,-0.531 0.333,-0.743 0,-0.212 0.056,-0.386 0.125,-0.387 0.169,-0.001 0.542,-0.826 0.542,-1.198 0,-0.165 0.075,-0.3 0.166,-0.3 0.092,0 0.167,-0.15 0.167,-0.334 0,-0.183 0.075,-0.333 0.167,-0.333 0.091,0 0.166,-0.225 0.166,-0.5 0,-0.275 0.075,-0.5 0.167,-0.5 0.092,0 0.167,-0.112 0.167,-0.25 0,-0.138 0.068,-0.25 0.152,-0.25 0.083,0 0.202,-0.3 0.264,-0.667 0.062,-0.366 0.181,-0.666 0.265,-0.666 0.084,0 0.152,-0.15 0.152,-0.334 0,-0.183 0.075,-0.333 0.167,-0.333 0.091,0 0.166,-0.225 0.166,-0.5 0,-0.275 0.075,-0.5 0.167,-0.5 0.092,0 0.167,-0.187 0.167,-0.417 0,-0.229 0.075,-0.416 0.166,-0.416 0.092,0 0.167,-0.3 0.167,-0.667 0,-0.367 0.075,-0.667 0.167,-0.667 0.091,0 0.166,-0.225 0.166,-0.5 0,-0.275 0.075,-0.5 0.167,-0.5 0.092,0 0.167,-0.258 0.167,-0.573 0,-0.316 0.075,-0.62 0.166,-0.677 0.092,-0.056 0.167,-0.436 0.167,-0.843 0,-0.407 0.075,-0.74 0.167,-0.74 0.091,0 0.166,-0.338 0.166,-0.75 0,-0.413 0.075,-0.75 0.167,-0.75 0.097,0 0.167,-0.556 0.167,-1.333 0,-0.778 0.069,-1.334 0.166,-1.334 0.109,0 0.167,-2.246 0.167,-6.406 0,-4.092 -0.06,-6.445 -0.167,-6.51 -0.091,-0.057 -0.166,-0.699 -0.166,-1.427 0,-0.771 -0.07,-1.323 -0.167,-1.323 -0.092,0 -0.167,-0.296 -0.167,-0.657 0,-0.361 -0.075,-0.703 -0.166,-0.76 -0.092,-0.057 -0.167,-0.394 -0.167,-0.75 0,-0.356 -0.075,-0.693 -0.167,-0.75 -0.091,-0.057 -0.166,-0.357 -0.166,-0.667 0,-0.31 -0.075,-0.61 -0.167,-0.666 -0.092,-0.057 -0.167,-0.324 -0.167,-0.594 0,-0.269 -0.075,-0.49 -0.166,-0.49 -0.092,0 -0.167,-0.3 -0.167,-0.666 0,-0.367 -0.075,-0.667 -0.167,-0.667 -0.091,0 -0.166,-0.15 -0.166,-0.333 0,-0.184 -0.075,-0.334 -0.167,-0.334 -0.092,0 -0.167,-0.3 -0.167,-0.666 0,-0.367 -0.075,-0.667 -0.166,-0.667 -0.092,0 -0.169,-0.131 -0.172,-0.292 -0.003,-0.16 -0.116,-0.437 -0.25,-0.615 C 260.11,55.415 260,55.134 260,54.968 c 0,-0.166 -0.075,-0.301 -0.167,-0.301 -0.091,0 -0.166,-0.15 -0.166,-0.334 0,-0.183 -0.075,-0.333 -0.167,-0.333 -0.092,0 -0.167,-0.146 -0.167,-0.323 0,-0.178 -0.075,-0.37 -0.166,-0.427 C 259.075,53.193 259,53.001 259,52.823 c 0,-0.177 -0.075,-0.323 -0.167,-0.323 -0.091,0 -0.166,-0.208 -0.166,-0.463 0,-0.272 -0.138,-0.563 -0.334,-0.704 C 258.15,51.201 258,50.936 258,50.745 c 0,-0.192 -0.15,-0.51 -0.333,-0.707 -0.184,-0.196 -0.334,-0.424 -0.334,-0.505 0,-0.28 -0.497,-1.146 -0.832,-1.449 -0.184,-0.166 -0.334,-0.403 -0.334,-0.526 0,-0.124 -0.075,-0.225 -0.167,-0.225 -0.092,0 -0.167,-0.133 -0.167,-0.296 0,-0.163 -0.15,-0.405 -0.333,-0.537 -0.183,-0.132 -0.333,-0.374 -0.333,-0.537 0,-0.163 -0.075,-0.296 -0.167,-0.296 -0.092,0 -0.167,-0.113 -0.167,-0.25 0,-0.138 -0.075,-0.25 -0.166,-0.25 -0.092,0 -0.167,-0.102 -0.167,-0.226 0,-0.124 -0.225,-0.46 -0.5,-0.748 -0.275,-0.288 -0.5,-0.604 -0.5,-0.703 0,-0.232 -0.423,-0.657 -0.655,-0.657 -0.098,0 -0.178,-0.133 -0.178,-0.296 0,-0.163 -0.15,-0.405 -0.334,-0.537 C 252.15,41.868 252,41.695 252,41.617 c 0,-0.079 -0.3,-0.431 -0.667,-0.784 -0.366,-0.352 -0.666,-0.723 -0.666,-0.824 0,-0.23 -4.936,-5.176 -5.166,-5.176 -0.092,0 -0.168,-0.083 -0.168,-0.186 0,-0.212 -1.156,-1.314 -1.379,-1.314 -0.081,0 -0.435,-0.3 -0.787,-0.666 C 242.814,32.3 242.445,32 242.346,32 c -0.098,0 -0.179,-0.075 -0.179,-0.167 0,-0.091 -0.123,-0.166 -0.273,-0.166 -0.15,0 -0.497,-0.263 -0.771,-0.584 -0.275,-0.321 -0.574,-0.583 -0.666,-0.583 -0.092,0 -0.289,-0.132 -0.437,-0.293 -0.149,-0.161 -0.476,-0.399 -0.728,-0.528 -0.252,-0.129 -0.459,-0.298 -0.459,-0.374 0,-0.076 -0.112,-0.138 -0.25,-0.138 -0.137,0 -0.25,-0.075 -0.25,-0.167 0,-0.092 -0.133,-0.167 -0.296,-0.167 -0.163,0 -0.405,-0.15 -0.537,-0.333 -0.132,-0.183 -0.339,-0.333 -0.46,-0.333 -0.122,0 -0.382,-0.15 -0.578,-0.334 -0.197,-0.183 -0.457,-0.333 -0.577,-0.333 -0.12,0 -0.218,-0.07 -0.218,-0.154 0,-0.168 -0.934,-0.679 -1.239,-0.679 -0.103,0 -0.296,-0.15 -0.428,-0.334 C 233.868,26.15 233.626,26 233.463,26 c -0.163,0 -0.296,-0.075 -0.296,-0.167 0,-0.091 -0.15,-0.166 -0.334,-0.166 -0.183,0 -0.333,-0.075 -0.333,-0.167 0,-0.092 -0.15,-0.167 -0.333,-0.167 -0.184,0 -0.334,-0.075 -0.334,-0.166 0,-0.092 -0.112,-0.167 -0.25,-0.167 -0.137,0 -0.25,-0.075 -0.25,-0.167 0,-0.091 -0.208,-0.166 -0.463,-0.166 -0.272,0 -0.562,-0.138 -0.703,-0.334 C 230.026,24.138 229.735,24 229.463,24 229.208,24 229,23.932 229,23.848 c 0,-0.172 -1.618,-1.015 -1.949,-1.015 -0.12,0 -0.218,-0.075 -0.218,-0.166 0,-0.092 -0.225,-0.167 -0.5,-0.167 -0.275,0 -0.5,-0.075 -0.5,-0.167 0,-0.091 -0.15,-0.166 -0.333,-0.166 -0.183,0 -0.333,-0.075 -0.333,-0.167 0,-0.092 -0.225,-0.167 -0.5,-0.167 -0.275,0 -0.5,-0.075 -0.5,-0.166 0,-0.092 -0.188,-0.167 -0.417,-0.167 -0.229,0 -0.417,-0.075 -0.417,-0.167 0,-0.091 -0.225,-0.166 -0.5,-0.166 -0.275,0 -0.5,-0.075 -0.5,-0.167 0,-0.092 -0.225,-0.167 -0.5,-0.167 -0.275,0 -0.5,-0.075 -0.5,-0.166 0,-0.092 -0.262,-0.167 -0.583,-0.167 -0.321,0 -0.583,-0.075 -0.583,-0.167 0,-0.091 -0.179,-0.166 -0.397,-0.166 -0.218,0 -0.489,-0.113 -0.603,-0.25 -0.114,-0.138 -0.457,-0.25 -0.761,-0.25 -0.304,0 -0.599,-0.075 -0.656,-0.167 -0.057,-0.092 -0.271,-0.167 -0.477,-0.167 -0.205,0 -0.444,-0.067 -0.531,-0.149 -0.087,-0.083 -0.459,-0.192 -0.825,-0.244 -1.413,-0.199 -1.923,-0.315 -2.012,-0.458 -0.05,-0.082 -0.462,-0.149 -0.915,-0.149 -0.453,0 -0.823,-0.075 -0.823,-0.166 0,-0.093 -0.445,-0.167 -1,-0.167 -0.556,0 -1,-0.074 -1,-0.167 0,-0.091 -0.413,-0.166 -0.917,-0.166 -0.504,0 -0.917,-0.075 -0.917,-0.167 0,-0.099 -0.639,-0.167 -1.583,-0.167 -0.944,0 -1.583,-0.067 -1.583,-0.166 0,-0.109 -2.858,-0.167 -8.24,-0.167 -5.314,0 -8.277,0.059 -8.344,0.167 m 7.917,51.5 c -0.899,0.164 -1.513,0.553 -2.548,1.611 -1.128,1.153 -1.121,1.102 -0.324,2.427 0.619,1.03 1.424,2.625 1.93,3.824 0.822,1.95 1.512,5.623 1.387,7.391 -0.158,2.245 -0.319,2.923 -1.103,4.644 -0.97,2.129 -3.398,3.124 -5.306,2.173 -1.373,-0.685 -3.369,-3.313 -3.369,-4.437 0,-0.176 -0.063,-0.281 -0.141,-0.233 -0.077,0.048 -0.145,0.41 -0.151,0.805 -0.074,4.914 -4.262,7.651 -7.556,4.938 -2.341,-1.927 -3.331,-7.891 -2.063,-12.426 0.622,-2.223 1.305,-4.338 1.577,-4.884 0.57,-1.142 0.568,-1.29 -0.019,-1.593 -1.595,-0.825 -4.364,0.774 -6.065,3.503 -0.901,1.446 -0.949,1.924 -0.34,3.423 0.762,1.878 3.72,10.849 4.506,13.667 0.217,0.779 0.555,1.942 0.751,2.583 0.679,2.229 2.614,9.869 3.397,13.417 0.212,0.962 0.429,1.862 0.482,2 0.052,0.138 0.18,0.775 0.285,1.417 0.104,0.641 0.33,1.804 0.503,2.583 0.527,2.379 1.162,5.722 1.415,7.446 0.131,0.901 0.327,2.106 0.435,2.679 l 0.196,1.042 12.884,0 c 7.144,0 12.924,-0.065 12.974,-0.146 0.049,-0.079 0.203,-0.848 0.341,-1.708 0.415,-2.586 1.708,-9.607 2.067,-11.23 0.081,-0.366 0.311,-1.379 0.51,-2.25 0.2,-0.871 0.545,-2.408 0.769,-3.416 0.603,-2.726 1.558,-6.575 2.149,-8.667 1.147,-4.055 2.32,-8.097 2.71,-9.333 1.046,-3.32 3.351,-10.088 3.788,-11.12 1.061,-2.506 -3.652,-6.906 -6.351,-5.93 -0.635,0.23 -0.644,0.263 -0.29,1.097 4.067,9.582 2.549,19.033 -3.039,18.913 -2.776,-0.059 -4.248,-1.945 -4.715,-6.044 -0.068,-0.596 -0.136,-0.971 -0.15,-0.833 -0.23,2.13 -3.24,5.161 -5.131,5.165 -5.549,0.013 -6.416,-11.614 -1.391,-18.671 1.075,-1.51 -2.544,-4.277 -5.004,-3.827 m -11.583,2.744 c -1.346,0.784 -1.387,0.989 -0.536,2.689 0.708,1.415 1.882,4.697 1.987,5.554 0.084,0.692 0.38,0.546 0.414,-0.204 0.043,-0.975 0.584,-2.991 1.413,-5.264 0.822,-2.257 0.841,-2.193 -0.901,-3.045 -0.535,-0.261 -1.69,-0.13 -2.377,0.27 m 22.333,-0.066 c -1.239,0.617 -1.339,0.811 -0.907,1.757 0.583,1.277 1.475,4.035 1.593,4.928 0.06,0.446 0.173,0.851 0.253,0.9 0.079,0.049 0.155,0.404 0.167,0.788 0.014,0.422 0.05,0.533 0.09,0.282 0.037,-0.229 0.131,-0.567 0.208,-0.75 0.077,-0.183 0.311,-0.896 0.521,-1.583 0.21,-0.688 0.784,-2.11 1.276,-3.161 0.892,-1.908 0.893,-1.912 0.583,-2.327 -0.788,-1.056 -2.556,-1.445 -3.784,-0.834 m -16.195,3.688 c -0.924,1.204 -1.774,6.43 -1.43,8.792 0.726,4.978 4.167,4.984 4.345,0.008 0.117,-3.285 -2.073,-9.897 -2.915,-8.8 m 12.174,0.656 c -3.289,4.99 -2.813,13.742 0.621,11.43 2.102,-1.416 2.196,-8.41 0.157,-11.68 l -0.298,-0.477 -0.48,0.727 m -21.879,0.715 c -0.205,0.465 -0.436,0.996 -0.515,1.179 -0.708,1.663 -1.438,6.112 -1.24,7.565 0.07,0.514 0.138,1.01 0.15,1.102 0.326,2.398 2.121,3.801 3.465,2.708 1.467,-1.196 0.855,-8.711 -1.014,-12.453 l -0.474,-0.948 -0.372,0.847 m 31.417,0.15 c -1.873,4.017 -2.429,11.381 -0.939,12.443 2.26,1.609 3.988,-1.798 3.464,-6.83 -0.174,-1.676 -1.527,-6.125 -2.009,-6.607 -0.02,-0.019 -0.252,0.428 -0.516,0.994 m -27.668,54.254 c -0.048,0.077 0.07,1.334 0.261,2.791 0.192,1.458 0.373,2.876 0.403,3.151 0.03,0.275 0.206,1.887 0.391,3.583 0.184,1.696 0.408,3.759 0.497,4.584 0.089,0.825 0.28,3.6 0.425,6.166 0.144,2.567 0.338,5.23 0.43,5.917 0.349,2.602 0.513,13.225 0.208,13.457 -0.559,0.423 0.194,0.46 9.536,0.46 8.86,0 10.17,-0.054 9.618,-0.395 -0.253,-0.157 -0.007,-10.499 0.389,-16.355 0.139,-2.063 0.281,-4.2 0.316,-4.75 0.034,-0.55 0.224,-2.538 0.421,-4.417 0.197,-1.879 0.431,-4.167 0.521,-5.083 0.09,-0.917 0.319,-2.905 0.509,-4.417 0.19,-1.513 0.382,-3.219 0.425,-3.792 l 0.079,-1.041 -12.171,0 c -6.694,0 -12.21,0.063 -12.258,0.141 M 172.25,175 c -0.057,0.092 -0.286,0.167 -0.51,0.167 -0.224,0 -0.407,0.075 -0.407,0.166 0,0.092 -0.116,0.167 -0.257,0.167 -0.142,0 -0.442,0.184 -0.667,0.409 -0.225,0.225 -0.409,0.525 -0.409,0.667 0,0.141 -0.075,0.257 -0.167,0.257 -0.104,0 -0.166,1.056 -0.166,2.834 0,1.777 0.062,2.833 0.166,2.833 0.092,0 0.167,0.094 0.167,0.208 0.001,0.323 0.757,1.125 1.061,1.125 0.15,0 0.272,0.075 0.272,0.167 0,0.11 8.611,0.167 25.5,0.167 16.889,0 25.5,-0.057 25.5,-0.167 0,-0.092 0.116,-0.167 0.258,-0.167 0.278,0 1.076,-0.72 1.076,-0.972 0,-0.084 0.112,-0.247 0.25,-0.361 0.203,-0.168 0.25,-0.703 0.25,-2.833 0,-2.131 -0.047,-2.665 -0.25,-2.834 -0.138,-0.114 -0.25,-0.276 -0.25,-0.361 0,-0.252 -0.798,-0.972 -1.076,-0.972 -0.142,0 -0.258,-0.075 -0.258,-0.167 0,-0.091 -0.183,-0.166 -0.406,-0.166 -0.224,0 -0.454,-0.075 -0.51,-0.167 -0.068,-0.11 -8.443,-0.167 -24.584,-0.167 -16.14,0 -24.515,0.057 -24.583,0.167 m 0.083,12.5 c -0.137,0.089 -0.422,0.163 -0.633,0.164 -0.234,0.002 -0.702,0.322 -1.208,0.828 l -0.825,0.825 0,2.805 c 0,2.613 0.022,2.821 0.333,3.045 0.183,0.132 0.333,0.368 0.333,0.525 0,0.157 0.15,0.333 0.334,0.391 0.183,0.059 0.333,0.176 0.333,0.262 0,0.085 0.15,0.155 0.333,0.155 0.184,0 0.334,0.075 0.334,0.167 0,0.11 8.473,0.166 25.085,0.166 25.898,0 25.351,0.013 26.045,-0.625 0.125,-0.114 0.296,-0.208 0.382,-0.208 0.085,0 0.154,-0.102 0.154,-0.227 0,-0.124 0.188,-0.367 0.417,-0.539 0.415,-0.312 0.417,-0.326 0.417,-3.037 l 0,-2.725 -0.584,-0.566 C 223.262,188.594 223,188.29 223,188.23 c 0,-0.228 -0.601,-0.553 -1.032,-0.558 -0.247,-0.003 -0.495,-0.08 -0.551,-0.172 -0.14,-0.226 -48.734,-0.226 -49.084,0 m -0.583,12.667 c -0.057,0.091 -0.213,0.166 -0.348,0.166 -0.134,0 -0.58,0.336 -0.99,0.746 l -0.745,0.746 0,2.842 0,2.842 0.745,0.745 c 0.41,0.41 0.86,0.746 1,0.746 0.14,0 0.255,0.075 0.255,0.167 0,0.11 8.5,0.166 25.166,0.166 16.667,0 25.167,-0.056 25.167,-0.166 0,-0.092 0.111,-0.167 0.246,-0.167 0.135,0 0.623,-0.359 1.083,-0.799 l 0.838,-0.798 0,-2.69 0,-2.691 -0.823,-0.844 c -0.452,-0.465 -0.94,-0.845 -1.083,-0.845 -0.144,0 -0.261,-0.075 -0.261,-0.166 0,-0.111 -8.469,-0.167 -25.073,-0.167 -16.536,0 -25.109,0.057 -25.177,0.167 m 9.083,13.166 c 0,0.275 0.075,0.5 0.167,0.5 0.092,0 0.167,0.158 0.167,0.35 0,0.193 0.225,0.56 0.5,0.817 0.275,0.257 0.5,0.535 0.5,0.618 0,0.177 1.078,1.382 1.236,1.382 0.109,0 0.442,0.284 1.511,1.292 0.316,0.298 0.69,0.541 0.83,0.541 0.141,0 0.256,0.061 0.256,0.136 0,0.171 1.284,0.864 1.599,0.864 0.129,0 0.234,0.075 0.234,0.167 0,0.092 0.15,0.167 0.334,0.167 0.183,0 0.333,0.075 0.333,0.166 0,0.092 0.15,0.167 0.333,0.167 0.184,0 0.334,0.075 0.334,0.167 0,0.091 0.225,0.166 0.5,0.166 0.275,0 0.5,0.075 0.5,0.167 0,0.092 0.141,0.167 0.314,0.167 0.173,0 0.529,0.112 0.792,0.249 0.262,0.137 0.683,0.249 0.935,0.25 0.252,0 0.459,0.076 0.459,0.167 0,0.107 1.5,0.167 4.166,0.167 2.667,0 4.167,-0.06 4.167,-0.167 0,-0.091 0.286,-0.166 0.635,-0.166 0.349,0 0.78,-0.11 0.958,-0.245 0.178,-0.135 0.53,-0.247 0.782,-0.25 0.252,-0.003 0.458,-0.08 0.458,-0.172 0,-0.092 0.15,-0.167 0.334,-0.167 0.183,0 0.333,-0.075 0.333,-0.166 0,-0.092 0.225,-0.167 0.5,-0.167 0.275,0 0.5,-0.075 0.5,-0.167 0,-0.091 0.112,-0.166 0.25,-0.166 0.137,0 0.25,-0.075 0.25,-0.167 0,-0.092 0.15,-0.167 0.333,-0.167 0.184,0 0.334,-0.075 0.334,-0.166 0,-0.092 0.15,-0.167 0.333,-0.167 0.183,0 0.333,-0.075 0.333,-0.167 0,-0.091 0.115,-0.166 0.256,-0.166 0.14,0 0.518,-0.263 0.839,-0.584 0.321,-0.321 0.647,-0.583 0.725,-0.583 0.221,0 2.347,-2.117 2.347,-2.337 0,-0.108 0.225,-0.406 0.5,-0.663 0.275,-0.257 0.5,-0.624 0.5,-0.817 0,-0.2 0.107,-0.35 0.25,-0.35 0.262,0 0.32,-0.289 0.149,-0.736 -0.091,-0.238 -1.664,-0.264 -16.083,-0.264 l -15.983,0 0,0.5"
       inkscape:connector-curvature="0"
       style="fill:#065271;fill-rule:evenodd;stroke:none" />
  </g>
</svg>
